<svg xmlns="http://www.w3.org/2000/svg" viewBox="0 0 1280 940" width="1280" height="940">
  <defs>
    <marker id="arrowA" markerWidth="10" markerHeight="7" refX="9" refY="3.5" orient="auto">
      <polygon points="0 0, 10 3.5, 0 7" fill="#7c3aed"/>
    </marker>
    <marker id="arrowB" markerWidth="10" markerHeight="7" refX="9" refY="3.5" orient="auto">
      <polygon points="0 0, 10 3.5, 0 7" fill="#10b981"/>
    </marker>
    <marker id="arrowC" markerWidth="10" markerHeight="7" refX="9" refY="3.5" orient="auto">
      <polygon points="0 0, 10 3.5, 0 7" fill="#2563eb"/>
    </marker>
    <marker id="arrowE" markerWidth="10" markerHeight="7" refX="9" refY="3.5" orient="auto">
      <polygon points="0 0, 10 3.5, 0 7" fill="#f97316"/>
    </marker>
    <marker id="arrowF" markerWidth="10" markerHeight="7" refX="9" refY="3.5" orient="auto">
      <polygon points="0 0, 10 3.5, 0 7" fill="#7c3aed"/>
    </marker>
    <marker id="arrowG" markerWidth="10" markerHeight="7" refX="9" refY="3.5" orient="auto">
      <polygon points="0 0, 10 3.5, 0 7" fill="#ef4444"/>
    </marker>
    <marker id="arrowH" markerWidth="10" markerHeight="7" refX="9" refY="3.5" orient="auto">
      <polygon points="0 0, 10 3.5, 0 7" fill="#6b7280"/>
    </marker>
    <filter id="shadowSoft" x="-20%" y="-20%" width="140%" height="160%">
      <feDropShadow dx="0" dy="3" stdDeviation="6" flood-color="#0f172a" flood-opacity="0.12"/>
    </filter>
    <filter id="shadowGlass" x="-20%" y="-20%" width="140%" height="160%">
      <feDropShadow dx="0" dy="10" stdDeviation="16" flood-color="#020617" flood-opacity="0.28"/>
    </filter>
    <style>
    text { font-family: 'Helvetica Neue', Helvetica, Arial, 'PingFang SC', 'Microsoft YaHei', 'Microsoft JhengHei', 'SimHei', sans-serif; }
    .title { font-size: 30px; font-weight: 700; fill: #111827; }
    .subtitle { font-size: 14px; font-weight: 500; fill: #6b7280; }
    .section { font-size: 13px; font-weight: 700; fill: #2563eb; letter-spacing: 1.4px; }
    .section-sub { font-size: 12px; font-weight: 500; fill: #94a3b8; }
    .node-title { font-size: 18px; font-weight: 700; fill: #111827; }
    .node-sub { font-size: 12px; font-weight: 500; fill: #6b7280; }
    .node-type { font-size: 12px; font-weight: 700; fill: #9ca3af; letter-spacing: 0.08em; }
    .arrow-label { font-size: 12px; font-weight: 600; fill: #6b7280; }
    .legend { font-size: 12px; font-weight: 500; fill: #6b7280; }
    .footnote { font-size: 12px; font-weight: 500; fill: #94a3b8; }
    </style>
  </defs>
  <rect width="1280.0" height="940.0" fill="#ffffff"/>
  <text x="640.0" y="56" text-anchor="middle" class="title">OS Symphony 在 OSWorld 中的接入链路</text>
  <text x="640.0" y="82" text-anchor="middle" class="subtitle">special runner + dual env + OSACI adaptation + auxiliary search/code loops</text>
  <rect x="36.0" y="96.0" width="1208.0" height="136.0" rx="16.0" fill="none" stroke="#dbe5f1" stroke-width="1.4" stroke-dasharray="6 5"/>
  <text x="54.0" y="120.0" class="section">入口与环境</text>
  <rect x="36.0" y="264.0" width="1208.0" height="242.0" rx="16.0" fill="none" stroke="#dbe5f1" stroke-width="1.4" stroke-dasharray="6 5"/>
  <text x="54.0" y="288.0" class="section">AGENT CORE 与特例 ROLLOUT</text>
  <rect x="36.0" y="538.0" width="1208.0" height="286.0" rx="16.0" fill="none" stroke="#dbe5f1" stroke-width="1.4" stroke-dasharray="6 5"/>
  <text x="54.0" y="562.0" class="section">执行与辅助链路</text>
  <path d="M 246.0,162.0 L 300.0,162.0" fill="none" stroke="#2563eb" stroke-width="2.4" marker-end="url(#arrowC)"/>
  <path d="M 564.0,162.0 L 648.0,162.0" fill="none" stroke="#7c3aed" stroke-width="2.4" marker-end="url(#arrowA)"/>
  <path d="M 564.0,162.0 L 564.0,206.0 L 920.0,206.0 L 920.0,162.0 L 946.0,162.0" fill="none" stroke="#7c3aed" stroke-width="2.4" marker-end="url(#arrowA)"/>
  <path d="M 432.0,206.0 L 432.0,226.4 L 254.0,226.4 L 254.0,334.0" fill="none" stroke="#7c3aed" stroke-width="2.4" marker-end="url(#arrowA)"/>
  <path d="M 772.0,208.0 L 772.0,280.0 L 254.0,280.0 L 254.0,334.0" fill="none" stroke="#2563eb" stroke-width="2.4" marker-end="url(#arrowC)"/>
  <path d="M 254.0,426.0 L 254.0,446.4 L 182.0,446.4 L 182.0,596.0" fill="none" stroke="#2563eb" stroke-width="2.4" marker-end="url(#arrowC)"/>
  <path d="M 182.0,596.0 L 182.0,492.0 L 470.0,492.0 L 470.0,378.0" fill="none" stroke="#2563eb" stroke-width="2.4" marker-end="url(#arrowC)"/>
  <path d="M 416.0,380.0 L 436.4,380.0 L 449.6,378.0 L 470.0,378.0" fill="none" stroke="#7c3aed" stroke-width="2.4" marker-end="url(#arrowA)"/>
  <path d="M 640.0,378.0 L 660.4,378.0 L 691.6,376.0 L 712.0,376.0" fill="none" stroke="#7c3aed" stroke-width="2.4" marker-end="url(#arrowA)"/>
  <path d="M 960.0,376.0 L 1000.0,376.0" fill="none" stroke="#7c3aed" stroke-width="2.4" marker-end="url(#arrowA)"/>
  <path d="M 1000.0,376.0 L 914.0,376.0 L 914.0,640.0 L 542.0,640.0" fill="none" stroke="#7c3aed" stroke-width="2.4" marker-end="url(#arrowA)"/>
  <path d="M 322.0,640.0 L 260.0,640.0 L 260.0,748.0 L 182.0,748.0 L 182.0,596.0" fill="none" stroke="#ef4444" stroke-width="2.4" marker-end="url(#arrowG)"/>
  <path d="M 836.0,430.0 L 836.0,522.0 L 676.0,522.0 L 676.0,596.0" fill="none" stroke="#7c3aed" stroke-width="2.4" marker-end="url(#arrowA)" stroke-dasharray="6,4"/>
  <path d="M 676.0,596.0 L 676.0,544.0 L 760.0,544.0 L 836.0,430.0" fill="none" stroke="#ef4444" stroke-width="2.4" marker-end="url(#arrowG)" stroke-dasharray="6,4"/>
  <path d="M 1105.0,428.0 L 1105.0,448.4 L 898.0,448.4 L 898.0,596.0" fill="none" stroke="#7c3aed" stroke-width="2.4" marker-end="url(#arrowA)" stroke-dasharray="6,4"/>
  <path d="M 1105.0,428.0 L 1105.0,448.4 L 1108.0,448.4 L 1108.0,596.0" fill="none" stroke="#7c3aed" stroke-width="2.4" marker-end="url(#arrowA)" stroke-dasharray="6,4"/>
  <path d="M 1105.0,428.0 L 1088.0,428.0 L 1088.0,508.0 L 898.0,508.0 L 898.0,708.0" fill="none" stroke="#7c3aed" stroke-width="2.4" marker-end="url(#arrowA)" stroke-dasharray="6,4"/>
  <path d="M 898.0,708.0 L 898.0,652.0 L 760.0,652.0 L 760.0,430.0 L 836.0,430.0" fill="none" stroke="#ef4444" stroke-width="2.4" marker-end="url(#arrowG)" stroke-dasharray="6,4"/>
  <path d="M 1105.0,428.0 L 1112.0,428.0 L 1112.0,508.0 L 1108.0,508.0 L 1108.0,708.0" fill="none" stroke="#7c3aed" stroke-width="2.4" marker-end="url(#arrowA)" stroke-dasharray="6,4"/>
  <path d="M 1108.0,708.0 L 1108.0,687.6 L 1070.0,687.6 L 1070.0,208.0" fill="none" stroke="#7c3aed" stroke-width="2.4" marker-end="url(#arrowA)" stroke-dasharray="6,4"/>
  <path d="M 1018.0,752.0 L 966.0,752.0 L 966.0,470.0 L 900.0,430.0 L 836.0,430.0" fill="none" stroke="#ef4444" stroke-width="2.4" marker-end="url(#arrowG)" stroke-dasharray="6,4"/>
  <path d="M 80.0 128.0 L 236.0 128.0 Q 246.0 128.0 246.0 138.0 L 246.0 186.0 Q 246.0 196.0 236.0 196.0 L 96.0 196.0 L 82.0 214.0 L 86.0 196.0 L 80.0 196.0 Q 70.0 196.0 70.0 186.0 L 70.0 138.0 Q 70.0 128.0 80.0 128.0 Z" fill="#ffffff" stroke="#d1d5db" stroke-width="2.0"/>
  <text x="158.0" y="162.0" text-anchor="middle" class="node-title">任务 meta / instruction</text>
  <rect x="300.0" y="118.0" width="264.0" height="88.0" rx="10.0" fill="#ffffff" stroke="#7c3aed" stroke-width="2.0"/>
  <rect x="306.0" y="124.0" width="252.0" height="76.0" rx="7.0" fill="none" stroke="#7c3aed" stroke-width="1.2" opacity="0.65"/>
  <text x="432.0" y="136.0" text-anchor="middle" class="node-type">SPECIAL RUNNER</text>
  <text x="432.0" y="168.0" text-anchor="middle" class="node-title">run_multienv_os_symphony.py</text>
  <text x="432.0" y="190.0" text-anchor="middle" class="node-sub">建 main env、search env 与 engine params</text>
  <rect x="318.0" y="186.0" width="130" height="16" rx="3" fill="#faf5ff" stroke="#ddd6fe" stroke-width="1"/>
  <text x="383.0" y="197.5" text-anchor="middle" font-size="11" font-weight="500" fill="#7c3aed">scripts/python</text>
  <rect x="648.0" y="116.0" width="248.0" height="92.0" rx="10.0" fill="#ffffff" stroke="#2563eb" stroke-width="1.8"/>
  <text x="772.0" y="134.0" text-anchor="middle" class="node-type">PRIMARY ENV</text>
  <text x="772.0" y="168.0" text-anchor="middle" class="node-title">main env</text>
  <text x="772.0" y="190.0" text-anchor="middle" class="node-sub">desktop_env_os_symphony.DesktopEnv</text>
  <rect x="946.0" y="116.0" width="248.0" height="92.0" rx="10.0" fill="#ffffff" stroke="#f97316" stroke-width="1.8"/>
  <text x="1070.0" y="134.0" text-anchor="middle" class="node-type">AUX ENV</text>
  <text x="1070.0" y="168.0" text-anchor="middle" class="node-title">search env</text>
  <text x="1070.0" y="190.0" text-anchor="middle" class="node-sub">延迟 start()，仅 search 时 reset</text>
  <rect x="92.0" y="334.0" width="324.0" height="92.0" rx="10.0" fill="#ffffff" stroke="#7c3aed" stroke-width="2.0"/>
  <rect x="98.0" y="340.0" width="312.0" height="80.0" rx="7.0" fill="none" stroke="#7c3aed" stroke-width="1.2" opacity="0.65"/>
  <text x="254.0" y="352.0" text-anchor="middle" class="node-type">SPECIAL ROLLOUT</text>
  <text x="254.0" y="386.0" text-anchor="middle" class="node-title">run_single_example_os_symphony(...)</text>
  <text x="254.0" y="408.0" text-anchor="middle" class="node-sub">agent.reset -&gt; env.reset -&gt; _get_obs()</text>
  <rect x="110.0" y="406.0" width="154" height="16" rx="3" fill="#faf5ff" stroke="#ddd6fe" stroke-width="1"/>
  <text x="187.0" y="417.5" text-anchor="middle" font-size="11" font-weight="500" fill="#7c3aed">lib_run_single.py</text>
  <path d="M 492.0 320.0 L 618.0 320.0 L 640.0 378.0 L 618.0 436.0 L 492.0 436.0 L 470.0 378.0 Z" fill="#ffffff" stroke="#7c3aed" stroke-width="1.8"/>
  <text x="555.0" y="338.0" text-anchor="middle" class="node-type">ENTRY AGENT</text>
  <text x="555.0" y="384.0" text-anchor="middle" class="node-title">OSSymphony</text>
  <text x="555.0" y="406.0" text-anchor="middle" class="node-sub">predict(instruction, obs, is_last_step)</text>
  <rect x="712.0" y="322.0" width="248.0" height="108.0" rx="10.0" fill="#ffffff" stroke="#7c3aed" stroke-width="2.0"/>
  <rect x="718.0" y="328.0" width="236.0" height="96.0" rx="7.0" fill="none" stroke="#7c3aed" stroke-width="1.2" opacity="0.65"/>
  <text x="836.0" y="340.0" text-anchor="middle" class="node-type">PLANNER</text>
  <text x="836.0" y="382.0" text-anchor="middle" class="node-title">Worker / Orchestrator</text>
  <text x="836.0" y="404.0" text-anchor="middle" class="node-sub">plan、reflection、tool choice</text>
  <rect x="730.0" y="410.0" width="202" height="16" rx="3" fill="#faf5ff" stroke="#ddd6fe" stroke-width="1"/>
  <text x="831.0" y="421.5" text-anchor="middle" font-size="11" font-weight="500" fill="#7c3aed">orchestrator + memoryer</text>
  <rect x="1000.0" y="324.0" width="210.0" height="104.0" rx="10.0" fill="#ffffff" stroke="#7c3aed" stroke-width="2.0"/>
  <rect x="1006.0" y="330.0" width="198.0" height="92.0" rx="7.0" fill="none" stroke="#7c3aed" stroke-width="1.2" opacity="0.65"/>
  <text x="1105.0" y="342.0" text-anchor="middle" class="node-type">ADAPTER</text>
  <text x="1105.0" y="382.0" text-anchor="middle" class="node-title">OSACI</text>
  <text x="1105.0" y="404.0" text-anchor="middle" class="node-sub">动作适配层，产出 pyautogui code</text>
  <rect x="1018.0" y="408.0" width="234" height="16" rx="3" fill="#faf5ff" stroke="#ddd6fe" stroke-width="1"/>
  <text x="1135.0" y="419.5" text-anchor="middle" font-size="11" font-weight="500" fill="#7c3aed">grounder / coder / searcher</text>
  <rect x="72.0" y="596.0" width="220.0" height="88.0" rx="10.0" fill="#ffffff" stroke="#2563eb" stroke-width="1.8"/>
  <text x="182.0" y="614.0" text-anchor="middle" class="node-type">OBSERVATION</text>
  <text x="182.0" y="646.0" text-anchor="middle" class="node-title">obs / screenshot</text>
  <text x="182.0" y="668.0" text-anchor="middle" class="node-sub">_get_obs()</text>
  <rect x="322.0" y="584.0" width="220.0" height="112.0" rx="10.0" fill="#0f172a" stroke="#334155" stroke-width="2.0" filter="url(#shadowSoft)"/>
  <rect x="322.0" y="584.0" width="220.0" height="18" rx="10.0" fill="#1e293b" opacity="0.95"/>
  <circle cx="338.0" cy="593.0" r="4" fill="#ef4444"/>
  <circle cx="352.0" cy="593.0" r="4" fill="#f59e0b"/>
  <circle cx="366.0" cy="593.0" r="4" fill="#10b981"/>
  <text x="340.0" y="628.0" font-size="28" font-weight="700" fill="#10b981">$</text>
  <text x="360.0" y="628.0" font-size="22" font-weight="500" fill="#6b7280">_</text>
  <text x="432.0" y="682.0" text-anchor="middle" class="node-title">env.step(action)</text>
  <rect x="582.0" y="596.0" width="188.0" height="88.0" rx="10.0" fill="#ffffff" stroke="#ef4444" stroke-width="1.8"/>
  <text x="676.0" y="614.0" text-anchor="middle" class="node-type">MEMORY</text>
  <text x="676.0" y="646.0" text-anchor="middle" class="node-title">ReflectionMemoryAgent</text>
  <text x="676.0" y="668.0" text-anchor="middle" class="node-sub">milestone / loop detect</text>
  <rect x="808.0" y="596.0" width="180.0" height="88.0" rx="10.0" fill="#ffffff" stroke="#f97316" stroke-width="1.8"/>
  <text x="898.0" y="614.0" text-anchor="middle" class="node-type">TOOL</text>
  <text x="898.0" y="646.0" text-anchor="middle" class="node-title">GrounderAgent</text>
  <text x="898.0" y="668.0" text-anchor="middle" class="node-sub">描述 -&gt; 坐标</text>
  <rect x="1018.0" y="596.0" width="180.0" height="88.0" rx="10.0" fill="#ffffff" stroke="#f97316" stroke-width="1.8"/>
  <text x="1108.0" y="614.0" text-anchor="middle" class="node-type">TOOL</text>
  <text x="1108.0" y="646.0" text-anchor="middle" class="node-title">OCR / Text Span</text>
  <text x="1108.0" y="668.0" text-anchor="middle" class="node-sub">phrase -&gt; word coords</text>
  <rect x="808.0" y="708.0" width="180.0" height="88.0" rx="10.0" fill="#ffffff" stroke="#f97316" stroke-width="1.8"/>
  <text x="898.0" y="726.0" text-anchor="middle" class="node-type">AUX AGENT</text>
  <text x="898.0" y="758.0" text-anchor="middle" class="node-title">CoderAgent</text>
  <text x="898.0" y="780.0" text-anchor="middle" class="node-sub">controller.run_python/bash</text>
  <rect x="1018.0" y="708.0" width="180.0" height="88.0" rx="10.0" fill="#ffffff" stroke="#f97316" stroke-width="1.8"/>
  <text x="1108.0" y="726.0" text-anchor="middle" class="node-type">AUX AGENT</text>
  <text x="1108.0" y="758.0" text-anchor="middle" class="node-title">SearcherAgent</text>
  <text x="1108.0" y="780.0" text-anchor="middle" class="node-sub">独立 Chrome 教程搜索</text>
  <rect x="550.0" y="148.0" width="112" height="20" rx="6" fill="#ffffff" opacity="0.94"/>
  <text x="606.0" y="162.0" text-anchor="middle" class="arrow-label">create + start</text>
  <rect x="290.5" y="228.4" width="105" height="20" rx="6" fill="#ffffff" opacity="0.94"/>
  <text x="343.0" y="242.4" text-anchor="middle" class="arrow-label">dispatch task</text>
  <rect x="495.0" y="238.0" width="36" height="20" rx="6" fill="#ffffff" opacity="0.94"/>
  <text x="513.0" y="252.0" text-anchor="middle" class="arrow-label">env</text>
  <rect x="308.0" y="462.0" width="36" height="20" rx="6" fill="#ffffff" opacity="0.94"/>
  <text x="326.0" y="476.0" text-anchor="middle" class="arrow-label">obs</text>
  <rect x="394.7" y="366.0" width="63" height="20" rx="6" fill="#ffffff" opacity="0.94"/>
  <text x="426.2" y="380.0" text-anchor="middle" class="arrow-label">predict</text>
  <rect x="630.5" y="363.0" width="91" height="20" rx="6" fill="#ffffff" opacity="0.94"/>
  <text x="676.0" y="377.0" text-anchor="middle" class="arrow-label">next action</text>
  <rect x="941.5" y="362.0" width="77" height="20" rx="6" fill="#ffffff" opacity="0.94"/>
  <text x="980.0" y="376.0" text-anchor="middle" class="arrow-label">plan code</text>
  <rect x="857.5" y="494.0" width="77" height="20" rx="6" fill="#ffffff" opacity="0.94"/>
  <text x="896.0" y="508.0" text-anchor="middle" class="arrow-label">exec_code</text>
  <rect x="189.5" y="718.0" width="63" height="20" rx="6" fill="#ffffff" opacity="0.94"/>
  <text x="221.0" y="732.0" text-anchor="middle" class="arrow-label">new obs</text>
  <rect x="714.0" y="492.0" width="84" height="20" rx="6" fill="#ffffff" opacity="0.94"/>
  <text x="756.0" y="506.0" text-anchor="middle" class="arrow-label">reflection</text>
  <rect x="738.5" y="457.0" width="119" height="20" rx="6" fill="#ffffff" opacity="0.94"/>
  <text x="798.0" y="471.0" text-anchor="middle" class="arrow-label">reflection back</text>
  <rect x="935.0" y="450.4" width="133" height="20" rx="6" fill="#ffffff" opacity="0.94"/>
  <text x="1001.5" y="464.4" text-anchor="middle" class="arrow-label">click/type/scroll</text>
  <rect x="1051.5" y="508.2" width="77" height="20" rx="6" fill="#ffffff" opacity="0.94"/>
  <text x="1090.0" y="522.2" text-anchor="middle" class="arrow-label">text span</text>
  <rect x="838.5" y="594.0" width="119" height="20" rx="6" fill="#ffffff" opacity="0.94"/>
  <text x="898.0" y="608.0" text-anchor="middle" class="arrow-label">call_code_agent</text>
  <rect x="714.5" y="527.0" width="91" height="20" rx="6" fill="#ffffff" opacity="0.94"/>
  <text x="760.0" y="541.0" text-anchor="middle" class="arrow-label">code result</text>
  <rect x="1075.5" y="454.0" width="133" height="20" rx="6" fill="#ffffff" opacity="0.94"/>
  <text x="1142.0" y="468.0" text-anchor="middle" class="arrow-label">call_search_agent</text>
  <rect x="993.0" y="433.8" width="154" height="20" rx="6" fill="#ffffff" opacity="0.94"/>
  <text x="1070.0" y="447.8" text-anchor="middle" class="arrow-label">start/reset + search</text>
  <rect x="931.0" y="597.0" width="70" height="20" rx="6" fill="#ffffff" opacity="0.94"/>
  <text x="966.0" y="611.0" text-anchor="middle" class="arrow-label">tutorial</text>
  <rect x="1071.0" y="838.0" width="177" height="112" rx="10" fill="#ffffff" opacity="0.88"/>
  <line x1="1081.0" y1="852.0" x2="1111.0" y2="852.0" stroke="#7c3aed" stroke-width="2.4" marker-end="url(#arrowA)"/>
  <text x="1121.0" y="856.0" class="legend">主执行链路</text>
  <line x1="1081.0" y1="874.0" x2="1111.0" y2="874.0" stroke="#2563eb" stroke-width="2.4" marker-end="url(#arrowC)"/>
  <text x="1121.0" y="878.0" class="legend">观测 / 句柄输入</text>
  <line x1="1081.0" y1="896.0" x2="1111.0" y2="896.0" stroke="#7c3aed" stroke-width="2.4" marker-end="url(#arrowA)"/>
  <text x="1121.0" y="900.0" class="legend">辅助工具或子 agent 调用</text>
  <line x1="1081.0" y1="918.0" x2="1111.0" y2="918.0" stroke="#ef4444" stroke-width="2.4" marker-end="url(#arrowG)"/>
  <text x="1121.0" y="922.0" class="legend">结果 / 教程 / 反思回灌</text>
  <text x="42.0" y="924.0" class="footnote">对应 docs/code-reading/17 的判断：更接近“特例 runner”，但 rollout 仍由 runner 直接 env.step(action)。</text>
</svg>