<svg xmlns="http://www.w3.org/2000/svg" viewBox="0 0 1160 760" width="1160" height="760">
  <defs>
    <marker id="arrowA" markerWidth="10" markerHeight="7" refX="9" refY="3.5" orient="auto">
      <polygon points="0 0, 10 3.5, 0 7" fill="#7c3aed"/>
    </marker>
    <marker id="arrowB" markerWidth="10" markerHeight="7" refX="9" refY="3.5" orient="auto">
      <polygon points="0 0, 10 3.5, 0 7" fill="#10b981"/>
    </marker>
    <marker id="arrowC" markerWidth="10" markerHeight="7" refX="9" refY="3.5" orient="auto">
      <polygon points="0 0, 10 3.5, 0 7" fill="#2563eb"/>
    </marker>
    <marker id="arrowE" markerWidth="10" markerHeight="7" refX="9" refY="3.5" orient="auto">
      <polygon points="0 0, 10 3.5, 0 7" fill="#f97316"/>
    </marker>
    <marker id="arrowF" markerWidth="10" markerHeight="7" refX="9" refY="3.5" orient="auto">
      <polygon points="0 0, 10 3.5, 0 7" fill="#7c3aed"/>
    </marker>
    <marker id="arrowG" markerWidth="10" markerHeight="7" refX="9" refY="3.5" orient="auto">
      <polygon points="0 0, 10 3.5, 0 7" fill="#ef4444"/>
    </marker>
    <marker id="arrowH" markerWidth="10" markerHeight="7" refX="9" refY="3.5" orient="auto">
      <polygon points="0 0, 10 3.5, 0 7" fill="#6b7280"/>
    </marker>
    <filter id="shadowSoft" x="-20%" y="-20%" width="140%" height="160%">
      <feDropShadow dx="0" dy="3" stdDeviation="6" flood-color="#0f172a" flood-opacity="0.12"/>
    </filter>
    <filter id="shadowGlass" x="-20%" y="-20%" width="140%" height="160%">
      <feDropShadow dx="0" dy="10" stdDeviation="16" flood-color="#020617" flood-opacity="0.28"/>
    </filter>
    <style>
    text { font-family: 'Helvetica Neue', Helvetica, Arial, 'PingFang SC', 'Microsoft YaHei', 'Microsoft JhengHei', 'SimHei', sans-serif; }
    .title { font-size: 30px; font-weight: 700; fill: #111827; }
    .subtitle { font-size: 14px; font-weight: 500; fill: #6b7280; }
    .section { font-size: 13px; font-weight: 700; fill: #2563eb; letter-spacing: 1.4px; }
    .section-sub { font-size: 12px; font-weight: 500; fill: #94a3b8; }
    .node-title { font-size: 18px; font-weight: 700; fill: #111827; }
    .node-sub { font-size: 12px; font-weight: 500; fill: #6b7280; }
    .node-type { font-size: 12px; font-weight: 700; fill: #9ca3af; letter-spacing: 0.08em; }
    .arrow-label { font-size: 12px; font-weight: 600; fill: #6b7280; }
    .legend { font-size: 12px; font-weight: 500; fill: #6b7280; }
    .footnote { font-size: 12px; font-weight: 500; fill: #94a3b8; }
    </style>
  </defs>
  <rect width="1160.0" height="760.0" fill="#ffffff"/>
  <text x="580.0" y="56" text-anchor="middle" class="title">OSWorld 项目总架构</text>
  <text x="580.0" y="82" text-anchor="middle" class="subtitle">桌面环境 Benchmark：环境层、任务层、Agent 层、评测与结果层</text>
  <rect x="40.0" y="100.0" width="1080.0" height="90.0" rx="16.0" fill="none" stroke="#dbeafe" stroke-width="1.4" stroke-dasharray="6 5"/>
  <text x="58.0" y="124.0" class="section">入口层</text>
  <rect x="40.0" y="220.0" width="1080.0" height="140.0" rx="16.0" fill="#faf5ff" stroke="#e9d5ff" stroke-width="1.4" stroke-dasharray="6 5"/>
  <text x="58.0" y="244.0" class="section">执行编排层</text>
  <rect x="40.0" y="390.0" width="1080.0" height="170.0" rx="16.0" fill="#f0fdf4" stroke="#bbf7d0" stroke-width="1.4" stroke-dasharray="6 5"/>
  <text x="58.0" y="414.0" class="section">环境与任务层</text>
  <rect x="40.0" y="590.0" width="1080.0" height="120.0" rx="16.0" fill="#fff7ed" stroke="#fed7aa" stroke-width="1.4" stroke-dasharray="6 5"/>
  <text x="58.0" y="614.0" class="section">结果与可视化层</text>
  <path d="M 260.0,145.0 L 170.0,190.0 L 170.0,210.0 L 910.0,210.0 L 910.0,256.0 L 800.0,294.0" fill="none" stroke="#7c3aed" stroke-width="2.4" marker-end="url(#arrowA)"/>
  <path d="M 435.0,176.0 L 435.0,220.0 L 500.0,220.0 L 500.0,256.0 L 545.0,256.0" fill="none" stroke="#7c3aed" stroke-width="2.4" marker-end="url(#arrowA)"/>
  <path d="M 755.0,176.0 L 755.0,210.0 L 590.0,210.0 L 590.0,256.0 L 545.0,256.0" fill="none" stroke="#7c3aed" stroke-width="2.4" marker-end="url(#arrowA)"/>
  <path d="M 320.0,294.0 L 400.0,294.0" fill="none" stroke="#2563eb" stroke-width="2.4" marker-end="url(#arrowC)"/>
  <path d="M 690.0,294.0 L 800.0,294.0" fill="none" stroke="#7c3aed" stroke-width="2.4" marker-end="url(#arrowA)"/>
  <path d="M 800.0,294.0 L 860.0,332.0 L 860.0,575.0 L 185.0,575.0 L 185.0,512.0 L 280.0,471.0" fill="none" stroke="#10b981" stroke-width="2.4" marker-end="url(#arrowB)" stroke-dasharray="6,4"/>
  <path d="M 910.0,332.0 L 800.0,294.0 L 760.0,294.0 L 760.0,471.0 L 820.0,471.0 L 715.0,430.0" fill="none" stroke="#2563eb" stroke-width="2.4" marker-end="url(#arrowC)"/>
  <path d="M 910.0,332.0 L 1020.0,294.0 L 1040.0,294.0 L 1040.0,430.0 L 975.0,430.0" fill="none" stroke="#2563eb" stroke-width="2.4" marker-end="url(#arrowC)"/>
  <path d="M 280.0,471.0 L 330.0,471.0" fill="none" stroke="#7c3aed" stroke-width="2.4" marker-end="url(#arrowA)"/>
  <path d="M 550.0,471.0 L 610.0,471.0" fill="none" stroke="#2563eb" stroke-width="2.4" marker-end="url(#arrowC)"/>
  <path d="M 545.0,332.0 L 545.0,640.0 L 360.0,640.0 L 285.0,618.0" fill="none" stroke="#10b981" stroke-width="2.4" marker-end="url(#arrowB)"/>
  <path d="M 360.0,653.0 L 460.0,653.0" fill="none" stroke="#2563eb" stroke-width="2.4" marker-end="url(#arrowC)"/>
  <path d="M 360.0,653.0 L 360.0,670.0 L 700.0,670.0 L 700.0,653.0 L 760.0,653.0" fill="none" stroke="#2563eb" stroke-width="2.4" marker-end="url(#arrowC)"/>
  <rect x="80.0" y="118.0" width="180.0" height="54.0" rx="10.0" fill="#ffffff" stroke="#d1d5db" stroke-width="1.8" filter="url(#shadowSoft)"/>
  <text x="170.0" y="136.0" text-anchor="middle" class="node-type">SMOKE TEST</text>
  <text x="170.0" y="151.0" text-anchor="middle" class="node-title">quickstart.py</text>
  <rect x="330.0" y="114.0" width="210.0" height="62.0" rx="10.0" fill="#eff6ff" stroke="#2563eb" stroke-width="2.0" filter="url(#shadowSoft)"/>
  <rect x="336.0" y="120.0" width="198.0" height="50.0" rx="7.0" fill="none" stroke="#2563eb" stroke-width="1.2" opacity="0.65"/>
  <text x="435.0" y="132.0" text-anchor="middle" class="node-type">SINGLE RUNNER</text>
  <text x="435.0" y="151.0" text-anchor="middle" class="node-title">run.py</text>
  <rect x="620.0" y="114.0" width="270.0" height="62.0" rx="10.0" fill="#eff6ff" stroke="#2563eb" stroke-width="2.0" filter="url(#shadowSoft)"/>
  <rect x="626.0" y="120.0" width="258.0" height="50.0" rx="7.0" fill="none" stroke="#2563eb" stroke-width="1.2" opacity="0.65"/>
  <text x="755.0" y="132.0" text-anchor="middle" class="node-type">PARALLEL RUNNER</text>
  <text x="755.0" y="151.0" text-anchor="middle" class="node-title">scripts/python/run_multienv.py</text>
  <rect x="110.0" y="264.0" width="210.0" height="60.0" rx="10.0" fill="#ffffff" stroke="#d1d5db" stroke-width="1.8" filter="url(#shadowSoft)"/>
  <text x="215.0" y="282.0" text-anchor="middle" class="node-type">AGENT INTERFACE</text>
  <text x="215.0" y="300.0" text-anchor="middle" class="node-title">mm_agents/*</text>
  <rect x="400.0" y="256.0" width="290.0" height="76.0" rx="10.0" fill="#f5f3ff" stroke="#8b5cf6" stroke-width="2.0" filter="url(#shadowSoft)"/>
  <rect x="406.0" y="262.0" width="278.0" height="64.0" rx="7.0" fill="none" stroke="#8b5cf6" stroke-width="1.2" opacity="0.65"/>
  <text x="545.0" y="274.0" text-anchor="middle" class="node-type">TASK LOOP</text>
  <text x="545.0" y="300.0" text-anchor="middle" class="node-title">lib_run_single.py</text>
  <rect x="800.0" y="256.0" width="220.0" height="76.0" rx="10.0" fill="#f5f3ff" stroke="#8b5cf6" stroke-width="2.0" filter="url(#shadowSoft)"/>
  <rect x="806.0" y="262.0" width="208.0" height="64.0" rx="7.0" fill="none" stroke="#8b5cf6" stroke-width="1.2" opacity="0.65"/>
  <text x="910.0" y="274.0" text-anchor="middle" class="node-type">GYM ENV</text>
  <text x="910.0" y="300.0" text-anchor="middle" class="node-title">DesktopEnv</text>
  <path d="M 112.0 430.0 L 258.0 430.0 L 280.0 471.0 L 258.0 512.0 L 112.0 512.0 L 90.0 471.0 Z" fill="#ecfdf5" stroke="#10b981" stroke-width="2.0" filter="url(#shadowSoft)"/>
  <text x="185.0" y="448.0" text-anchor="middle" class="node-type">VMWARE / DOCKER / AWS</text>
  <text x="185.0" y="477.0" text-anchor="middle" class="node-title">providers</text>
  <rect x="330.0" y="430.0" width="220.0" height="82.0" rx="10.0" fill="#ffffff" stroke="#10b981" stroke-width="1.8" filter="url(#shadowSoft)"/>
  <text x="440.0" y="448.0" text-anchor="middle" class="node-type">REMOTE DESKTOP API</text>
  <text x="440.0" y="477.0" text-anchor="middle" class="node-title">desktop_env/server</text>
  <rect x="610.0" y="430.0" width="210.0" height="82.0" rx="10.0" fill="#ffffff" stroke="#10b981" stroke-width="1.8" filter="url(#shadowSoft)"/>
  <text x="715.0" y="448.0" text-anchor="middle" class="node-type">PYTHON + SETUP</text>
  <text x="715.0" y="477.0" text-anchor="middle" class="node-title">controllers</text>
  <path d="M 880.0 430.0 L 1052.0 430.0 L 1070.0 448.0 L 1070.0 512.0 L 880.0 512.0 Z" fill="#ffffff" stroke="#10b981" stroke-width="2.0" filter="url(#shadowSoft)"/>
  <path d="M 1052.0 430.0 L 1052.0 448.0 L 1070.0 448.0" fill="none" stroke="#10b981" stroke-width="2.0"/>
  <line x1="898.0" y1="456.0" x2="1042.0" y2="456.0" stroke="#86efac" stroke-width="1.2"/>
  <line x1="898.0" y1="470.0" x2="1042.0" y2="470.0" stroke="#86efac" stroke-width="1.2"/>
  <line x1="898.0" y1="484.0" x2="1042.0" y2="484.0" stroke="#86efac" stroke-width="1.2"/>
  <line x1="898.0" y1="498.0" x2="1042.0" y2="498.0" stroke="#86efac" stroke-width="1.2"/>
  <text x="975.0" y="538.0" text-anchor="middle" class="node-title">evaluation_examples</text>
  <text x="975.0" y="556.0" text-anchor="middle" class="node-sub">task json + evaluator</text>
  <ellipse cx="285.0" cy="626.75" rx="37.5" ry="8.75" fill="#fff7ed" stroke="#f97316" stroke-width="2.2"/>
  <rect x="210.0" y="626.75" width="150.0" height="52.5" fill="#fff7ed" stroke="#f97316" stroke-width="2.2"/>
  <ellipse cx="285.0" cy="679.25" rx="37.5" ry="8.75" fill="#fff7ed" stroke="#f97316" stroke-width="2.2"/>
  <ellipse cx="285.0" cy="644.6" rx="37.5" ry="8.75" fill="none" stroke="#f97316" stroke-opacity="0.45" stroke-width="1.2"/>
  <ellipse cx="285.0" cy="660.0" rx="37.5" ry="8.75" fill="none" stroke="#f97316" stroke-opacity="0.25" stroke-width="1.2"/>
  <text x="285.0" y="647.0" text-anchor="middle" class="node-title">results/</text>
  <text x="285.0" y="671.0" text-anchor="middle" class="node-sub">traj + screenshots</text>
  <rect x="460.0" y="622.0" width="190.0" height="62.0" rx="10.0" fill="#ffffff" stroke="#f97316" stroke-width="1.8" filter="url(#shadowSoft)"/>
  <text x="555.0" y="640.0" text-anchor="middle" class="node-type">SUMMARY</text>
  <text x="555.0" y="659.0" text-anchor="middle" class="node-title">show_result.py</text>
  <rect x="760.0" y="622.0" width="210.0" height="62.0" rx="10.0" fill="#ffffff" stroke="#f97316" stroke-width="1.8" filter="url(#shadowSoft)"/>
  <text x="865.0" y="640.0" text-anchor="middle" class="node-type">WEB VIEWER</text>
  <text x="865.0" y="659.0" text-anchor="middle" class="node-title">monitor/</text>
  <rect x="446.5" y="190.0" width="42" height="20" rx="6" fill="#ffffff" opacity="0.94"/>
  <text x="467.5" y="204.0" text-anchor="middle" class="arrow-label">串行任务</text>
  <rect x="321.5" y="280.0" width="77" height="20" rx="6" fill="#ffffff" opacity="0.94"/>
  <text x="360.0" y="294.0" text-anchor="middle" class="arrow-label">predict()</text>
  <rect x="685.5" y="280.0" width="119" height="20" rx="6" fill="#ffffff" opacity="0.94"/>
  <text x="745.0" y="294.0" text-anchor="middle" class="arrow-label">reset/step/eval</text>
  <line x1="42.0" y1="714.0" x2="72.0" y2="714.0" stroke="#7c3aed" stroke-width="2.4" marker-end="url(#arrowA)"/>
  <text x="82.0" y="718.0" class="legend">主执行编排</text>
  <line x1="42.0" y1="736.0" x2="72.0" y2="736.0" stroke="#2563eb" stroke-width="2.4" marker-end="url(#arrowC)"/>
  <text x="82.0" y="740.0" class="legend">读取观测/任务/结果</text>
  <line x1="42.0" y1="758.0" x2="72.0" y2="758.0" stroke="#10b981" stroke-width="2.4" marker-end="url(#arrowB)"/>
  <text x="82.0" y="762.0" class="legend">环境操作 / 结果写入</text>
</svg>