<svg xmlns="http://www.w3.org/2000/svg" viewBox="0 0 1180 780" width="1180" height="780">
  <defs>
    <marker id="arrowA" markerWidth="10" markerHeight="7" refX="9" refY="3.5" orient="auto">
      <polygon points="0 0, 10 3.5, 0 7" fill="#7c3aed"/>
    </marker>
    <marker id="arrowB" markerWidth="10" markerHeight="7" refX="9" refY="3.5" orient="auto">
      <polygon points="0 0, 10 3.5, 0 7" fill="#10b981"/>
    </marker>
    <marker id="arrowC" markerWidth="10" markerHeight="7" refX="9" refY="3.5" orient="auto">
      <polygon points="0 0, 10 3.5, 0 7" fill="#2563eb"/>
    </marker>
    <marker id="arrowE" markerWidth="10" markerHeight="7" refX="9" refY="3.5" orient="auto">
      <polygon points="0 0, 10 3.5, 0 7" fill="#f97316"/>
    </marker>
    <marker id="arrowF" markerWidth="10" markerHeight="7" refX="9" refY="3.5" orient="auto">
      <polygon points="0 0, 10 3.5, 0 7" fill="#7c3aed"/>
    </marker>
    <marker id="arrowG" markerWidth="10" markerHeight="7" refX="9" refY="3.5" orient="auto">
      <polygon points="0 0, 10 3.5, 0 7" fill="#ef4444"/>
    </marker>
    <marker id="arrowH" markerWidth="10" markerHeight="7" refX="9" refY="3.5" orient="auto">
      <polygon points="0 0, 10 3.5, 0 7" fill="#6b7280"/>
    </marker>
    <filter id="shadowSoft" x="-20%" y="-20%" width="140%" height="160%">
      <feDropShadow dx="0" dy="3" stdDeviation="6" flood-color="#0f172a" flood-opacity="0.12"/>
    </filter>
    <filter id="shadowGlass" x="-20%" y="-20%" width="140%" height="160%">
      <feDropShadow dx="0" dy="10" stdDeviation="16" flood-color="#020617" flood-opacity="0.28"/>
    </filter>
    <style>
    text { font-family: 'Helvetica Neue', Helvetica, Arial, 'PingFang SC', 'Microsoft YaHei', 'Microsoft JhengHei', 'SimHei', sans-serif; }
    .title { font-size: 30px; font-weight: 700; fill: #111827; }
    .subtitle { font-size: 14px; font-weight: 500; fill: #6b7280; }
    .section { font-size: 13px; font-weight: 700; fill: #2563eb; letter-spacing: 1.4px; }
    .section-sub { font-size: 12px; font-weight: 500; fill: #94a3b8; }
    .node-title { font-size: 18px; font-weight: 700; fill: #111827; }
    .node-sub { font-size: 12px; font-weight: 500; fill: #6b7280; }
    .node-type { font-size: 12px; font-weight: 700; fill: #9ca3af; letter-spacing: 0.08em; }
    .arrow-label { font-size: 12px; font-weight: 600; fill: #6b7280; }
    .legend { font-size: 12px; font-weight: 500; fill: #6b7280; }
    .footnote { font-size: 12px; font-weight: 500; fill: #94a3b8; }
    </style>
  </defs>
  <rect width="1180.0" height="780.0" fill="#ffffff"/>
  <text x="590.0" y="56" text-anchor="middle" class="title">OSWorld 学习与运行路径图</text>
  <text x="590.0" y="82" text-anchor="middle" class="subtitle">先看骨架，再跑 smoke test，再读执行链，最后扩展 Agent</text>
  <path d="M 580.0,96.0 L 580.0,130.0" fill="none" stroke="#7c3aed" stroke-width="2.4" marker-end="url(#arrowA)"/>
  <path d="M 580.0,186.0 L 580.0,230.0" fill="none" stroke="#7c3aed" stroke-width="2.4" marker-end="url(#arrowA)"/>
  <path d="M 500.0,275.0 L 260.0,360.0" fill="none" stroke="#2563eb" stroke-width="2.4" marker-end="url(#arrowC)"/>
  <path d="M 580.0,320.0 L 580.0,360.0" fill="none" stroke="#2563eb" stroke-width="2.4" marker-end="url(#arrowC)"/>
  <path d="M 660.0,275.0 L 920.0,360.0" fill="none" stroke="#2563eb" stroke-width="2.4" marker-end="url(#arrowC)"/>
  <path d="M 260.0,424.0 L 260.0,500.0" fill="none" stroke="#7c3aed" stroke-width="2.4" marker-end="url(#arrowA)"/>
  <path d="M 580.0,424.0 L 580.0,500.0" fill="none" stroke="#7c3aed" stroke-width="2.4" marker-end="url(#arrowA)"/>
  <path d="M 920.0,424.0 L 920.0,500.0" fill="none" stroke="#7c3aed" stroke-width="2.4" marker-end="url(#arrowA)"/>
  <path d="M 260.0,564.0 L 580.0,640.0" fill="none" stroke="#ef4444" stroke-width="2.4" marker-end="url(#arrowG)"/>
  <path d="M 580.0,564.0 L 580.0,640.0" fill="none" stroke="#ef4444" stroke-width="2.4" marker-end="url(#arrowG)"/>
  <path d="M 920.0,564.0 L 580.0,640.0" fill="none" stroke="#ef4444" stroke-width="2.4" marker-end="url(#arrowG)"/>
  <path d="M 580.0,704.0 L 580.0,720.0" fill="none" stroke="#7c3aed" stroke-width="2.4" marker-end="url(#arrowA)"/>
  <rect x="470.0" y="40.0" width="220.0" height="56.0" rx="10.0" fill="#ffffff" stroke="#d1d5db" stroke-width="2.0" filter="url(#shadowSoft)"/>
  <text x="580.0" y="68.0" text-anchor="middle" class="node-title">开始学习项目</text>
  <rect x="470.0" y="130.0" width="220.0" height="56.0" rx="10.0" fill="#ffffff" stroke="#d1d5db" stroke-width="2.0" filter="url(#shadowSoft)"/>
  <text x="580.0" y="158.0" text-anchor="middle" class="node-title">读 README</text>
  <rect x="500.0" y="230.0" width="160.0" height="90.0" rx="10.0" fill="#ffffff" stroke="#d1d5db" stroke-width="2.0" filter="url(#shadowSoft)"/>
  <text x="580.0" y="275.0" text-anchor="middle" class="node-title">先学什么?</text>
  <rect x="140.0" y="360.0" width="240.0" height="64.0" rx="10.0" fill="#ffffff" stroke="#d1d5db" stroke-width="2.0" filter="url(#shadowSoft)"/>
  <text x="260.0" y="392.0" text-anchor="middle" class="node-title">跑 quickstart.py / 确认环境能起</text>
  <rect x="470.0" y="360.0" width="220.0" height="64.0" rx="10.0" fill="#ffffff" stroke="#d1d5db" stroke-width="2.0" filter="url(#shadowSoft)"/>
  <text x="580.0" y="392.0" text-anchor="middle" class="node-title">看 DesktopEnv / 理解 reset-step-eval</text>
  <rect x="800.0" y="360.0" width="240.0" height="64.0" rx="10.0" fill="#ffffff" stroke="#d1d5db" stroke-width="2.0" filter="url(#shadowSoft)"/>
  <text x="920.0" y="392.0" text-anchor="middle" class="node-title">看 task json / 理解 instruction-config-evaluator</text>
  <rect x="140.0" y="500.0" width="240.0" height="64.0" rx="10.0" fill="#ffffff" stroke="#d1d5db" stroke-width="2.0" filter="url(#shadowSoft)"/>
  <text x="260.0" y="532.0" text-anchor="middle" class="node-title">读 lib_run_single.py / 串起单任务链</text>
  <rect x="470.0" y="500.0" width="220.0" height="64.0" rx="10.0" fill="#ffffff" stroke="#d1d5db" stroke-width="2.0" filter="url(#shadowSoft)"/>
  <text x="580.0" y="532.0" text-anchor="middle" class="node-title">读 mm_agents/agent.py / 看 predict 接口</text>
  <rect x="800.0" y="500.0" width="240.0" height="64.0" rx="10.0" fill="#ffffff" stroke="#d1d5db" stroke-width="2.0" filter="url(#shadowSoft)"/>
  <text x="920.0" y="532.0" text-anchor="middle" class="node-title">读 run_multienv.py / 看批量跑分</text>
  <rect x="470.0" y="640.0" width="220.0" height="64.0" rx="10.0" fill="#ffffff" stroke="#d1d5db" stroke-width="2.0" filter="url(#shadowSoft)"/>
  <text x="580.0" y="672.0" text-anchor="middle" class="node-title">改自定义 Agent / 换 provider 或 model</text>
  <rect x="470.0" y="720.0" width="220.0" height="40.0" rx="10.0" fill="#ffffff" stroke="#d1d5db" stroke-width="2.0" filter="url(#shadowSoft)"/>
  <text x="580.0" y="740.0" text-anchor="middle" class="node-title">开始正式实验</text>
  <rect x="359.0" y="287.5" width="42" height="20" rx="6" fill="#ffffff" opacity="0.94"/>
  <text x="380.0" y="301.5" text-anchor="middle" class="arrow-label">先跑起来</text>
  <rect x="541.0" y="326.0" width="42" height="20" rx="6" fill="#ffffff" opacity="0.94"/>
  <text x="562.0" y="340.0" text-anchor="middle" class="arrow-label">先看骨架</text>
  <rect x="769.0" y="287.5" width="42" height="20" rx="6" fill="#ffffff" opacity="0.94"/>
  <text x="790.0" y="301.5" text-anchor="middle" class="arrow-label">先看任务</text>
  <line x1="42.0" y1="748.0" x2="72.0" y2="748.0" stroke="#7c3aed" stroke-width="2.4" marker-end="url(#arrowA)"/>
  <text x="82.0" y="752.0" class="legend">推荐学习顺序</text>
  <line x1="42.0" y1="770.0" x2="72.0" y2="770.0" stroke="#2563eb" stroke-width="2.4" marker-end="url(#arrowC)"/>
  <text x="82.0" y="774.0" class="legend">不同切入点</text>
  <line x1="42.0" y1="792.0" x2="72.0" y2="792.0" stroke="#ef4444" stroke-width="2.4" marker-end="url(#arrowG)"/>
  <text x="82.0" y="796.0" class="legend">汇合到实践</text>
</svg>