<svg xmlns="http://www.w3.org/2000/svg" viewBox="0 0 1220 980" width="1220" height="980">
  <defs>
    <marker id="arrowA" markerWidth="10" markerHeight="7" refX="9" refY="3.5" orient="auto">
      <polygon points="0 0, 10 3.5, 0 7" fill="#7c3aed"/>
    </marker>
    <marker id="arrowB" markerWidth="10" markerHeight="7" refX="9" refY="3.5" orient="auto">
      <polygon points="0 0, 10 3.5, 0 7" fill="#10b981"/>
    </marker>
    <marker id="arrowC" markerWidth="10" markerHeight="7" refX="9" refY="3.5" orient="auto">
      <polygon points="0 0, 10 3.5, 0 7" fill="#2563eb"/>
    </marker>
    <marker id="arrowE" markerWidth="10" markerHeight="7" refX="9" refY="3.5" orient="auto">
      <polygon points="0 0, 10 3.5, 0 7" fill="#f97316"/>
    </marker>
    <marker id="arrowF" markerWidth="10" markerHeight="7" refX="9" refY="3.5" orient="auto">
      <polygon points="0 0, 10 3.5, 0 7" fill="#7c3aed"/>
    </marker>
    <marker id="arrowG" markerWidth="10" markerHeight="7" refX="9" refY="3.5" orient="auto">
      <polygon points="0 0, 10 3.5, 0 7" fill="#ef4444"/>
    </marker>
    <marker id="arrowH" markerWidth="10" markerHeight="7" refX="9" refY="3.5" orient="auto">
      <polygon points="0 0, 10 3.5, 0 7" fill="#6b7280"/>
    </marker>
    <filter id="shadowSoft" x="-20%" y="-20%" width="140%" height="160%">
      <feDropShadow dx="0" dy="3" stdDeviation="6" flood-color="#0f172a" flood-opacity="0.12"/>
    </filter>
    <filter id="shadowGlass" x="-20%" y="-20%" width="140%" height="160%">
      <feDropShadow dx="0" dy="10" stdDeviation="16" flood-color="#020617" flood-opacity="0.28"/>
    </filter>
    <style>
    text { font-family: 'Helvetica Neue', Helvetica, Arial, 'PingFang SC', 'Microsoft YaHei', 'Microsoft JhengHei', 'SimHei', sans-serif; }
    .title { font-size: 30px; font-weight: 700; fill: #111827; }
    .subtitle { font-size: 14px; font-weight: 500; fill: #6b7280; }
    .section { font-size: 13px; font-weight: 700; fill: #2563eb; letter-spacing: 1.4px; }
    .section-sub { font-size: 12px; font-weight: 500; fill: #94a3b8; }
    .node-title { font-size: 18px; font-weight: 700; fill: #111827; }
    .node-sub { font-size: 12px; font-weight: 500; fill: #6b7280; }
    .node-type { font-size: 12px; font-weight: 700; fill: #9ca3af; letter-spacing: 0.08em; }
    .arrow-label { font-size: 12px; font-weight: 600; fill: #6b7280; }
    .legend { font-size: 12px; font-weight: 500; fill: #6b7280; }
    .footnote { font-size: 12px; font-weight: 500; fill: #94a3b8; }
    </style>
  </defs>
  <rect width="1220.0" height="980.0" fill="#ffffff"/>
  <text x="610.0" y="56" text-anchor="middle" class="title">OSWorld 虚拟机 Benchmark 运行流程</text>
  <text x="610.0" y="82" text-anchor="middle" class="subtitle">从 Runner 启动到任务评分与结果落盘的完整机制</text>
  <path d="M 610.0,88.0 L 610.0,118.0" fill="none" stroke="#7c3aed" stroke-width="2.4" marker-end="url(#arrowA)"/>
  <path d="M 610.0,176.0 L 610.0,206.0" fill="none" stroke="#7c3aed" stroke-width="2.4" marker-end="url(#arrowA)"/>
  <path d="M 610.0,264.0 L 610.0,296.0" fill="none" stroke="#7c3aed" stroke-width="2.4" marker-end="url(#arrowA)"/>
  <path d="M 530.0,341.0 L 235.0,430.0" fill="none" stroke="#2563eb" stroke-width="2.4" marker-end="url(#arrowC)"/>
  <path d="M 610.0,386.0 L 610.0,430.0" fill="none" stroke="#2563eb" stroke-width="2.4" marker-end="url(#arrowC)"/>
  <path d="M 370.0,462.0 L 480.0,462.0" fill="none" stroke="#7c3aed" stroke-width="2.4" marker-end="url(#arrowA)"/>
  <path d="M 740.0,462.0 L 850.0,462.0" fill="none" stroke="#7c3aed" stroke-width="2.4" marker-end="url(#arrowA)"/>
  <path d="M 975.0,494.0 L 610.0,540.0" fill="none" stroke="#7c3aed" stroke-width="2.4" marker-end="url(#arrowA)"/>
  <path d="M 610.0,604.0 L 610.0,640.0" fill="none" stroke="#7c3aed" stroke-width="2.4" marker-end="url(#arrowA)"/>
  <path d="M 530.0,685.0 L 235.0,780.0" fill="none" stroke="#2563eb" stroke-width="2.4" marker-end="url(#arrowC)"/>
  <path d="M 610.0,730.0 L 610.0,780.0" fill="none" stroke="#2563eb" stroke-width="2.4" marker-end="url(#arrowC)"/>
  <path d="M 360.0,812.0 L 480.0,812.0" fill="none" stroke="#7c3aed" stroke-width="2.4" marker-end="url(#arrowA)"/>
  <path d="M 740.0,812.0 L 850.0,812.0" fill="none" stroke="#7c3aed" stroke-width="2.4" marker-end="url(#arrowA)"/>
  <path d="M 975.0,844.0 L 975.0,890.0" fill="none" stroke="#2563eb" stroke-width="2.4" marker-end="url(#arrowC)"/>
  <path d="M 850.0,922.0 L 740.0,922.0" fill="none" stroke="#7c3aed" stroke-width="2.4" marker-end="url(#arrowA)"/>
  <path d="M 480.0,922.0 L 360.0,922.0" fill="none" stroke="#10b981" stroke-width="2.4" marker-end="url(#arrowB)"/>
  <path d="M 360.0,922.0 L 235.0,954.0 L 235.0,975.0 L 975.0,975.0 L 975.0,844.0 L 850.0,812.0" fill="none" stroke="#ef4444" stroke-width="2.4" marker-end="url(#arrowG)"/>
  <path d="M 610.0,954.0 L 610.0,1000.0" fill="none" stroke="#7c3aed" stroke-width="2.4" marker-end="url(#arrowA)"/>
  <path d="M 610.0,1064.0 L 610.0,1090.0" fill="none" stroke="#7c3aed" stroke-width="2.4" marker-end="url(#arrowA)"/>
  <rect x="480.0" y="30.0" width="260.0" height="58.0" rx="10.0" fill="#ffffff" stroke="#d1d5db" stroke-width="2.0" filter="url(#shadowSoft)"/>
  <text x="610.0" y="59.0" text-anchor="middle" class="node-title">Runner 启动（quickstart / run / run_multienv）</text>
  <rect x="480.0" y="118.0" width="260.0" height="58.0" rx="10.0" fill="#ffffff" stroke="#d1d5db" stroke-width="2.0" filter="url(#shadowSoft)"/>
  <text x="610.0" y="147.0" text-anchor="middle" class="node-title">创建 DesktopEnv + Agent</text>
  <rect x="480.0" y="206.0" width="260.0" height="58.0" rx="10.0" fill="#ffffff" stroke="#d1d5db" stroke-width="2.0" filter="url(#shadowSoft)"/>
  <text x="610.0" y="235.0" text-anchor="middle" class="node-title">Provider 启动 VM / 云环境</text>
  <rect x="530.0" y="296.0" width="160.0" height="90.0" rx="10.0" fill="#ffffff" stroke="#d1d5db" stroke-width="2.0" filter="url(#shadowSoft)"/>
  <text x="610.0" y="341.0" text-anchor="middle" class="node-title">首次安装?</text>
  <rect x="100.0" y="430.0" width="270.0" height="64.0" rx="10.0" fill="#ffffff" stroke="#d1d5db" stroke-width="2.0" filter="url(#shadowSoft)"/>
  <text x="235.0" y="462.0" text-anchor="middle" class="node-title">下载镜像 / 解压 / 重命名 VM / 创建 init_state</text>
  <rect x="480.0" y="430.0" width="260.0" height="64.0" rx="10.0" fill="#ffffff" stroke="#d1d5db" stroke-width="2.0" filter="url(#shadowSoft)"/>
  <text x="610.0" y="462.0" text-anchor="middle" class="node-title">获取 guest IP 与端口</text>
  <rect x="850.0" y="430.0" width="250.0" height="64.0" rx="10.0" fill="#ffffff" stroke="#d1d5db" stroke-width="2.0" filter="url(#shadowSoft)"/>
  <text x="975.0" y="462.0" text-anchor="middle" class="node-title">轮询 /screenshot /terminal 确认 guest server 就绪</text>
  <rect x="480.0" y="540.0" width="260.0" height="64.0" rx="10.0" fill="#ffffff" stroke="#d1d5db" stroke-width="2.0" filter="url(#shadowSoft)"/>
  <text x="610.0" y="572.0" text-anchor="middle" class="node-title">任务开始前 reset()</text>
  <rect x="530.0" y="640.0" width="160.0" height="90.0" rx="10.0" fill="#ffffff" stroke="#d1d5db" stroke-width="2.0" filter="url(#shadowSoft)"/>
  <text x="610.0" y="685.0" text-anchor="middle" class="node-title">环境已被使用?</text>
  <rect x="110.0" y="780.0" width="250.0" height="64.0" rx="10.0" fill="#ffffff" stroke="#d1d5db" stroke-width="2.0" filter="url(#shadowSoft)"/>
  <text x="235.0" y="812.0" text-anchor="middle" class="node-title">revertToSnapshot / 替换根卷 / 重启环境</text>
  <rect x="480.0" y="780.0" width="260.0" height="64.0" rx="10.0" fill="#ffffff" stroke="#d1d5db" stroke-width="2.0" filter="url(#shadowSoft)"/>
  <text x="610.0" y="812.0" text-anchor="middle" class="node-title">SetupController 执行 task config</text>
  <rect x="850.0" y="780.0" width="250.0" height="64.0" rx="10.0" fill="#ffffff" stroke="#d1d5db" stroke-width="2.0" filter="url(#shadowSoft)"/>
  <text x="975.0" y="812.0" text-anchor="middle" class="node-title">读取 screenshot / accessibility / terminal</text>
  <rect x="850.0" y="890.0" width="250.0" height="64.0" rx="10.0" fill="#ffffff" stroke="#d1d5db" stroke-width="2.0" filter="url(#shadowSoft)"/>
  <text x="975.0" y="922.0" text-anchor="middle" class="node-title">Agent predict() 产出动作</text>
  <rect x="480.0" y="890.0" width="260.0" height="64.0" rx="10.0" fill="#ffffff" stroke="#d1d5db" stroke-width="2.0" filter="url(#shadowSoft)"/>
  <text x="610.0" y="922.0" text-anchor="middle" class="node-title">env.step() -&gt; 通过 guest server 执行动作</text>
  <rect x="110.0" y="890.0" width="250.0" height="64.0" rx="10.0" fill="#ffffff" stroke="#d1d5db" stroke-width="2.0" filter="url(#shadowSoft)"/>
  <text x="235.0" y="922.0" text-anchor="middle" class="node-title">保存 traj.jsonl / screenshot / recording</text>
  <rect x="480.0" y="1000.0" width="260.0" height="64.0" rx="10.0" fill="#ffffff" stroke="#d1d5db" stroke-width="2.0" filter="url(#shadowSoft)"/>
  <text x="610.0" y="1032.0" text-anchor="middle" class="node-title">evaluate() -&gt; getter + metric 判分</text>
  <rect x="480.0" y="1090.0" width="260.0" height="58.0" rx="10.0" fill="#ffffff" stroke="#d1d5db" stroke-width="2.0" filter="url(#shadowSoft)"/>
  <text x="610.0" y="1119.0" text-anchor="middle" class="node-title">写 result.txt / 汇总 success rate</text>
  <rect x="364.5" y="355.5" width="36" height="20" rx="6" fill="#ffffff" opacity="0.94"/>
  <text x="382.5" y="369.5" text-anchor="middle" class="arrow-label">是</text>
  <rect x="574.0" y="394.0" width="36" height="20" rx="6" fill="#ffffff" opacity="0.94"/>
  <text x="592.0" y="408.0" text-anchor="middle" class="arrow-label">否</text>
  <rect x="364.5" y="702.5" width="36" height="20" rx="6" fill="#ffffff" opacity="0.94"/>
  <text x="382.5" y="716.5" text-anchor="middle" class="arrow-label">是</text>
  <rect x="574.0" y="741.0" width="36" height="20" rx="6" fill="#ffffff" opacity="0.94"/>
  <text x="592.0" y="755.0" text-anchor="middle" class="arrow-label">否</text>
  <rect x="531.5" y="961.0" width="147" height="20" rx="6" fill="#ffffff" opacity="0.94"/>
  <text x="605.0" y="975.0" text-anchor="middle" class="arrow-label">循环直到 done/max_steps</text>
  <rect x="582.0" y="963.0" width="56" height="20" rx="6" fill="#ffffff" opacity="0.94"/>
  <text x="610.0" y="977.0" text-anchor="middle" class="arrow-label">done 后</text>
  <line x1="42.0" y1="1148.0" x2="72.0" y2="1148.0" stroke="#7c3aed" stroke-width="2.4" marker-end="url(#arrowA)"/>
  <text x="82.0" y="1152.0" class="legend">执行与编排</text>
  <line x1="42.0" y1="1170.0" x2="72.0" y2="1170.0" stroke="#2563eb" stroke-width="2.4" marker-end="url(#arrowC)"/>
  <text x="82.0" y="1174.0" class="legend">状态判断 / 观测读取</text>
  <line x1="42.0" y1="1192.0" x2="72.0" y2="1192.0" stroke="#10b981" stroke-width="2.4" marker-end="url(#arrowB)"/>
  <text x="82.0" y="1196.0" class="legend">结果与轨迹写入</text>
  <line x1="42.0" y1="1214.0" x2="72.0" y2="1214.0" stroke="#ef4444" stroke-width="2.4" marker-end="url(#arrowG)"/>
  <text x="82.0" y="1218.0" class="legend">任务循环</text>
</svg>