<svg xmlns="http://www.w3.org/2000/svg" viewBox="0 0 1600 1120" width="1600" height="1120">
  <defs>
    <marker id="arrowA" markerWidth="10" markerHeight="7" refX="9" refY="3.5" orient="auto">
      <polygon points="0 0, 10 3.5, 0 7" fill="#7c3aed"/>
    </marker>
    <marker id="arrowB" markerWidth="10" markerHeight="7" refX="9" refY="3.5" orient="auto">
      <polygon points="0 0, 10 3.5, 0 7" fill="#10b981"/>
    </marker>
    <marker id="arrowC" markerWidth="10" markerHeight="7" refX="9" refY="3.5" orient="auto">
      <polygon points="0 0, 10 3.5, 0 7" fill="#2563eb"/>
    </marker>
    <marker id="arrowE" markerWidth="10" markerHeight="7" refX="9" refY="3.5" orient="auto">
      <polygon points="0 0, 10 3.5, 0 7" fill="#f97316"/>
    </marker>
    <marker id="arrowF" markerWidth="10" markerHeight="7" refX="9" refY="3.5" orient="auto">
      <polygon points="0 0, 10 3.5, 0 7" fill="#7c3aed"/>
    </marker>
    <marker id="arrowG" markerWidth="10" markerHeight="7" refX="9" refY="3.5" orient="auto">
      <polygon points="0 0, 10 3.5, 0 7" fill="#ef4444"/>
    </marker>
    <marker id="arrowH" markerWidth="10" markerHeight="7" refX="9" refY="3.5" orient="auto">
      <polygon points="0 0, 10 3.5, 0 7" fill="#6b7280"/>
    </marker>
    <filter id="shadowSoft" x="-20%" y="-20%" width="140%" height="160%">
      <feDropShadow dx="0" dy="3" stdDeviation="6" flood-color="#0f172a" flood-opacity="0.12"/>
    </filter>
    <filter id="shadowGlass" x="-20%" y="-20%" width="140%" height="160%">
      <feDropShadow dx="0" dy="10" stdDeviation="16" flood-color="#020617" flood-opacity="0.28"/>
    </filter>
    <style>
    text { font-family: 'Helvetica Neue', Helvetica, Arial, 'PingFang SC', 'Microsoft YaHei', 'Microsoft JhengHei', 'SimHei', sans-serif; }
    .title { font-size: 30px; font-weight: 700; fill: #111827; }
    .subtitle { font-size: 14px; font-weight: 500; fill: #6b7280; }
    .section { font-size: 13px; font-weight: 700; fill: #2563eb; letter-spacing: 1.4px; }
    .section-sub { font-size: 12px; font-weight: 500; fill: #94a3b8; }
    .node-title { font-size: 18px; font-weight: 700; fill: #111827; }
    .node-sub { font-size: 12px; font-weight: 500; fill: #6b7280; }
    .node-type { font-size: 12px; font-weight: 700; fill: #9ca3af; letter-spacing: 0.08em; }
    .arrow-label { font-size: 12px; font-weight: 600; fill: #6b7280; }
    .legend { font-size: 12px; font-weight: 500; fill: #6b7280; }
    .footnote { font-size: 12px; font-weight: 500; fill: #94a3b8; }
    </style>
  </defs>
  <rect width="1600.0" height="1120.0" fill="#ffffff"/>
  <text x="800.0" y="56" text-anchor="middle" class="title">OSWorld Agent Runtime Main Chain</text>
  <text x="800.0" y="82" text-anchor="middle" class="subtitle">从命令行启动，到任务注入、Agent 推理、动作执行、评测产物落盘</text>
  <rect x="60.0" y="110.0" width="1480.0" height="145.0" rx="16.0" fill="none" stroke="#dbe5f1" stroke-width="1.4" stroke-dasharray="6 5"/>
  <text x="78.0" y="134.0" class="section">01 ENTRY</text>
  <text x="78.0" y="154.0" class="section-sub">命令、任务列表、进程入口</text>
  <text x="42.0" y="182.5" text-anchor="end" dominant-baseline="middle" font-size="14.0" font-weight="600" fill="#6b7280">输入层</text>
  <rect x="60.0" y="290.0" width="1480.0" height="250.0" rx="16.0" fill="none" stroke="#dbe5f1" stroke-width="1.4" stroke-dasharray="6 5"/>
  <text x="78.0" y="314.0" class="section">02 BENCHMARK RUNTIME</text>
  <text x="78.0" y="334.0" class="section-sub">标准 rollout 调用 DesktopEnv.* 与 agent.reset / predict</text>
  <text x="42.0" y="415.0" text-anchor="end" dominant-baseline="middle" font-size="14.0" font-weight="600" fill="#6b7280">运行层</text>
  <rect x="60.0" y="575.0" width="1480.0" height="220.0" rx="16.0" fill="none" stroke="#dbe5f1" stroke-width="1.4" stroke-dasharray="6 5"/>
  <text x="78.0" y="599.0" class="section">03 AGENT REASONING</text>
  <text x="78.0" y="619.0" class="section-sub">消息拼装、模型调用、动作解析或适配</text>
  <text x="42.0" y="685.0" text-anchor="end" dominant-baseline="middle" font-size="14.0" font-weight="600" fill="#6b7280">推理层</text>
  <rect x="60.0" y="825.0" width="1480.0" height="220.0" rx="16.0" fill="none" stroke="#dbe5f1" stroke-width="1.4" stroke-dasharray="6 5"/>
  <text x="78.0" y="849.0" class="section">04 EXECUTION + EVALUATION</text>
  <text x="78.0" y="869.0" class="section-sub">控制器执行动作、GUI 状态变化、评测打分与结果落盘</text>
  <text x="42.0" y="935.0" text-anchor="end" dominant-baseline="middle" font-size="14.0" font-weight="600" fill="#6b7280">执行层</text>
  <path d="M 310.0,189.0 L 479.6,189.0 L 479.6,198.0 L 500.0,198.0" fill="none" stroke="#7c3aed" stroke-width="2.4" marker-end="url(#arrowA)"/>
  <path d="M 830.0,198.0 L 995.0,198.0" fill="none" stroke="#7c3aed" stroke-width="2.4" marker-end="url(#arrowA)"/>
  <path d="M 1320.0,191.0 L 1275.4,191.0 L 1275.4,198.0 L 1255.0,198.0" fill="none" stroke="#f97316" stroke-width="2.4" marker-end="url(#arrowE)"/>
  <path d="M 1125.0,236.0 L 1125.0,256.4 L 225.0,256.4 L 225.0,372.0" fill="none" stroke="#7c3aed" stroke-width="2.4" marker-end="url(#arrowA)"/>
  <path d="M 350.0,420.0 L 405.0,420.0" fill="none" stroke="#7c3aed" stroke-width="2.4" marker-end="url(#arrowA)"/>
  <path d="M 645.0,420.0 L 700.0,420.0" fill="none" stroke="#7c3aed" stroke-width="2.4" marker-end="url(#arrowA)"/>
  <path d="M 930.0,420.0 L 980.0,420.0" fill="none" stroke="#f97316" stroke-width="2.4" marker-end="url(#arrowE)"/>
  <path d="M 1105.0,468.0 L 1105.0,488.4 L 235.0,488.4 L 235.0,648.0" fill="none" stroke="#7c3aed" stroke-width="2.4" marker-end="url(#arrowA)"/>
  <path d="M 355.0,696.0 L 435.0,696.0" fill="none" stroke="#7c3aed" stroke-width="2.4" marker-end="url(#arrowA)"/>
  <path d="M 695.0,696.0 L 715.4,696.0 L 764.6,692.0 L 785.0,692.0" fill="none" stroke="#f97316" stroke-width="2.4" marker-end="url(#arrowE)"/>
  <path d="M 1035.0,692.0 L 1055.4,692.0 L 1099.6,696.0 L 1120.0,696.0" fill="none" stroke="#f97316" stroke-width="2.4" marker-end="url(#arrowE)"/>
  <path d="M 1265.0,650.0 L 1265.0,629.6 L 1405.0,629.6 L 1405.0,466.0" fill="none" stroke="#7c3aed" stroke-width="2.4" marker-end="url(#arrowA)"/>
  <path d="M 1405.0,466.0 L 1405.0,486.4 L 270.0,486.4 L 270.0,892.0" fill="none" stroke="#7c3aed" stroke-width="2.4" marker-end="url(#arrowA)"/>
  <path d="M 400.0,938.0 L 420.4,938.0 L 494.6,934.0 L 515.0,934.0" fill="none" stroke="#7c3aed" stroke-width="2.4" marker-end="url(#arrowA)"/>
  <path d="M 655.0,880.0 L 655.0,859.6 L 815.0,859.6 L 815.0,464.0" fill="none" stroke="#f97316" stroke-width="2.4" marker-end="url(#arrowE)"/>
  <path d="M 795.0,934.0 L 815.4,934.0 L 909.6,937.0 L 930.0,937.0" fill="none" stroke="#f97316" stroke-width="2.4" marker-end="url(#arrowE)"/>
  <path d="M 1170.0,937.0 L 1190.4,937.0 L 1239.6,933.0 L 1260.0,933.0" fill="none" stroke="#10b981" stroke-width="2.4" marker-end="url(#arrowB)"/>
  <path d="M 1125.0,236.0 L 1125.0,256.4 L 1380.0,256.4 L 1380.0,882.0" fill="none" stroke="#10b981" stroke-width="2.4" marker-end="url(#arrowB)"/>
  <rect x="90.0" y="155.0" width="220.0" height="68.0" rx="10.0" fill="#ffffff" stroke="#d1d5db" stroke-width="2.0" filter="url(#shadowSoft)"/>
  <circle cx="116.0" cy="189.0" r="18" fill="#dbeafe" stroke="#d1d5db" stroke-width="1.6"/>
  <circle cx="116.0" cy="183.0" r="5" fill="#d1d5db"/>
  <path d="M 106.0 200.0 Q 116.0 191.0 126.0 200.0" fill="none" stroke="#d1d5db" stroke-width="2"/>
  <text x="154.0" y="195.0" text-anchor="start" class="node-title">你 / CLI</text>
  <text x="154.0" y="217.0" text-anchor="start" class="node-sub">uv run python ...</text>
  <rect x="500.0" y="150.0" width="330.0" height="96.0" rx="10.0" fill="#ffffff" stroke="#d1d5db" stroke-width="2.0" filter="url(#shadowSoft)"/>
  <rect x="500.0" y="150.0" width="330.0" height="18" rx="10.0" fill="#1f2937" opacity="0.95"/>
  <circle cx="516.0" cy="159.0" r="4" fill="#ef4444"/>
  <circle cx="530.0" cy="159.0" r="4" fill="#f59e0b"/>
  <circle cx="544.0" cy="159.0" r="4" fill="#10b981"/>
  <text x="518.0" y="194.0" font-size="28" font-weight="700" fill="#10b981">$</text>
  <text x="538.0" y="194.0" font-size="22" font-weight="500" fill="#6b7280">_</text>
  <text x="665.0" y="232.0" text-anchor="middle" class="node-title">run_multienv_xxx.py</text>
  <text x="665.0" y="266.0" text-anchor="middle" class="node-sub">parse args + build env/agent</text>
  <rect x="995.0" y="160.0" width="260.0" height="76.0" rx="10.0" fill="#ffffff" stroke="#d1d5db" stroke-width="1.8" filter="url(#shadowSoft)"/>
  <text x="1125.0" y="198.0" text-anchor="middle" class="node-title">单任务循环入口</text>
  <text x="1125.0" y="220.0" text-anchor="middle" class="node-sub">lib_run_single.*</text>
  <path d="M 1320.0 145.0 L 1482.0 145.0 L 1500.0 163.0 L 1500.0 237.0 L 1320.0 237.0 Z" fill="#ffffff" stroke="#d1d5db" stroke-width="2.0" filter="url(#shadowSoft)"/>
  <path d="M 1482.0 145.0 L 1482.0 163.0 L 1500.0 163.0" fill="none" stroke="#d1d5db" stroke-width="2.0"/>
  <line x1="1338.0" y1="171.0" x2="1472.0" y2="171.0" stroke="#c4b5fd" stroke-width="1.2"/>
  <line x1="1338.0" y1="185.0" x2="1472.0" y2="185.0" stroke="#c4b5fd" stroke-width="1.2"/>
  <line x1="1338.0" y1="199.0" x2="1472.0" y2="199.0" stroke="#c4b5fd" stroke-width="1.2"/>
  <line x1="1338.0" y1="213.0" x2="1472.0" y2="213.0" stroke="#c4b5fd" stroke-width="1.2"/>
  <text x="1410.0" y="263.0" text-anchor="middle" class="node-title">task meta</text>
  <text x="1410.0" y="281.0" text-anchor="middle" class="node-sub">example ids</text>
  <rect x="100.0" y="372.0" width="250.0" height="96.0" rx="10.0" fill="#ffffff" stroke="#d1d5db" stroke-width="1.8" filter="url(#shadowSoft)"/>
  <text x="225.0" y="420.0" text-anchor="middle" class="node-title">DesktopEnv.reset(...)</text>
  <text x="225.0" y="442.0" text-anchor="middle" class="node-sub">回滚快照 + 启动 app + 执行 config</text>
  <rect x="405.0" y="375.0" width="240.0" height="90.0" rx="10.0" fill="#ffffff" stroke="#d1d5db" stroke-width="1.8" filter="url(#shadowSoft)"/>
  <text x="525.0" y="420.0" text-anchor="middle" class="node-title">agent.reset(...)</text>
  <text x="525.0" y="442.0" text-anchor="middle" class="node-sub">logger + vm_ip + clear history</text>
  <rect x="700.0" y="376.0" width="230.0" height="88.0" rx="10.0" fill="#ffffff" stroke="#d1d5db" stroke-width="1.8" filter="url(#shadowSoft)"/>
  <text x="815.0" y="420.0" text-anchor="middle" class="node-title">DesktopEnv._get_obs()</text>
  <text x="815.0" y="442.0" text-anchor="middle" class="node-sub">screenshot + a11y_tree</text>
  <rect x="980.0" y="372.0" width="250.0" height="96.0" rx="10.0" fill="#ffffff" stroke="#d1d5db" stroke-width="1.8" filter="url(#shadowSoft)"/>
  <text x="1105.0" y="420.0" text-anchor="middle" class="node-title">agent.predict(...)</text>
  <text x="1105.0" y="442.0" text-anchor="middle" class="node-sub">instruction + obs -&gt; response</text>
  <rect x="1280.0" y="374.0" width="250.0" height="92.0" rx="10.0" fill="#ffffff" stroke="#d1d5db" stroke-width="1.8" filter="url(#shadowSoft)"/>
  <text x="1405.0" y="420.0" text-anchor="middle" class="node-title">DesktopEnv.step(...)</text>
  <text x="1405.0" y="442.0" text-anchor="middle" class="node-sub">执行动作并返回 next obs</text>
  <path d="M 137.0 648.0 L 333.0 648.0 L 355.0 696.0 L 333.0 744.0 L 137.0 744.0 L 115.0 696.0 Z" fill="#eff6ff" stroke="#2563eb" stroke-width="2.0" filter="url(#shadowSoft)"/>
  <text x="235.0" y="696.0" text-anchor="middle" class="node-title">XxxAgent</text>
  <text x="235.0" y="718.0" text-anchor="middle" class="node-sub">Prompt / Seed / CUA</text>
  <rect x="435.0" y="650.0" width="260.0" height="92.0" rx="10.0" fill="#ffffff" stroke="#d1d5db" stroke-width="1.8" filter="url(#shadowSoft)"/>
  <text x="565.0" y="696.0" text-anchor="middle" class="node-title">消息拼装</text>
  <text x="565.0" y="718.0" text-anchor="middle" class="node-sub">history + screenshot + instruction</text>
  <rect x="785.0" y="640.0" width="250.0" height="104.0" rx="10.0" fill="#f0fdf4" stroke="#16a34a" stroke-width="2.0" filter="url(#shadowSoft)"/>
  <rect x="791.0" y="646.0" width="238.0" height="92.0" rx="7.0" fill="none" stroke="#16a34a" stroke-width="1.2" opacity="0.65"/>
  <text x="910.0" y="692.0" text-anchor="middle" class="node-title">Model API</text>
  <text x="910.0" y="714.0" text-anchor="middle" class="node-sub">OpenAI / Doubao / Claude ...</text>
  <rect x="1120.0" y="650.0" width="290.0" height="92.0" rx="10.0" fill="#ffffff" stroke="#d1d5db" stroke-width="1.8" filter="url(#shadowSoft)"/>
  <text x="1265.0" y="696.0" text-anchor="middle" class="node-title">动作解析 / 适配</text>
  <text x="1265.0" y="718.0" text-anchor="middle" class="node-sub">response -&gt; actions</text>
  <rect x="140.0" y="892.0" width="260.0" height="92.0" rx="10.0" fill="#ffffff" stroke="#d1d5db" stroke-width="1.8" filter="url(#shadowSoft)"/>
  <text x="270.0" y="938.0" text-anchor="middle" class="node-title">PythonController / Guest</text>
  <text x="270.0" y="960.0" text-anchor="middle" class="node-sub">鼠标键盘 / 截图 / a11y</text>
  <path d="M 515.0 898.0 L 536.6 898.0 L 546.32 880.0 L 569.0 880.0 L 795.0 880.0 L 795.0 988.0 L 515.0 988.0 Z" fill="#ffffff" stroke="#d1d5db" stroke-width="2.0" filter="url(#shadowSoft)"/>
  <line x1="537.0" y1="922.0" x2="773.0" y2="922.0" stroke="#d1d5db" stroke-opacity="0.35" stroke-width="1.2"/>
  <line x1="537.0" y1="936.0" x2="773.0" y2="936.0" stroke="#d1d5db" stroke-opacity="0.35" stroke-width="1.2"/>
  <line x1="537.0" y1="950.0" x2="773.0" y2="950.0" stroke="#d1d5db" stroke-opacity="0.35" stroke-width="1.2"/>
  <text x="655.0" y="1014.0" text-anchor="middle" class="node-title">VM / App State</text>
  <text x="655.0" y="1032.0" text-anchor="middle" class="node-sub">Chrome / Calc / OS apps</text>
  <rect x="930.0" y="894.0" width="240.0" height="86.0" rx="10.0" fill="#ffffff" stroke="#d1d5db" stroke-width="1.8" filter="url(#shadowSoft)"/>
  <text x="1050.0" y="937.0" text-anchor="middle" class="node-title">DesktopEnv.evaluate()</text>
  <text x="1050.0" y="959.0" text-anchor="middle" class="node-sub">getter + metric -&gt; score</text>
  <path d="M 1260.0 900.0 L 1281.6 900.0 L 1291.32 882.0 L 1314.0 882.0 L 1500.0 882.0 L 1500.0 984.0 L 1260.0 984.0 Z" fill="#ffffff" stroke="#d1d5db" stroke-width="2.0" filter="url(#shadowSoft)"/>
  <line x1="1282.0" y1="924.0" x2="1478.0" y2="924.0" stroke="#d1d5db" stroke-opacity="0.35" stroke-width="1.2"/>
  <line x1="1282.0" y1="938.0" x2="1478.0" y2="938.0" stroke="#d1d5db" stroke-opacity="0.35" stroke-width="1.2"/>
  <line x1="1282.0" y1="952.0" x2="1478.0" y2="952.0" stroke="#d1d5db" stroke-opacity="0.35" stroke-width="1.2"/>
  <text x="1380.0" y="1010.0" text-anchor="middle" class="node-title">结果目录</text>
  <text x="1380.0" y="1028.0" text-anchor="middle" class="node-sub">args.json / traj.jsonl / result.txt / recording.mp4</text>
  <rect x="373.8" y="191.0" width="42" height="20" rx="6" fill="#ffffff" opacity="0.94"/>
  <text x="394.8" y="205.0" text-anchor="middle" class="arrow-label">启动命令</text>
  <rect x="849.5" y="200.0" width="126" height="20" rx="6" fill="#ffffff" opacity="0.94"/>
  <text x="912.5" y="214.0" text-anchor="middle" class="arrow-label">spawn / dispatch</text>
  <rect x="1248.7" y="177.0" width="98" height="20" rx="6" fill="#ffffff" opacity="0.94"/>
  <text x="1297.7" y="191.0" text-anchor="middle" class="arrow-label">load example</text>
  <rect x="654.0" y="258.4" width="42" height="20" rx="6" fill="#ffffff" opacity="0.94"/>
  <text x="675.0" y="272.4" text-anchor="middle" class="arrow-label">开始任务</text>
  <rect x="332.0" y="406.0" width="91" height="20" rx="6" fill="#ffffff" opacity="0.94"/>
  <text x="377.5" y="420.0" text-anchor="middle" class="arrow-label">fresh vm_ip</text>
  <rect x="648.0" y="406.0" width="49" height="20" rx="6" fill="#ffffff" opacity="0.94"/>
  <text x="672.5" y="420.0" text-anchor="middle" class="arrow-label">ready</text>
  <rect x="937.0" y="390.0" width="36" height="20" rx="6" fill="#ffffff" opacity="0.94"/>
  <text x="955.0" y="404.0" text-anchor="middle" class="arrow-label">obs</text>
  <rect x="649.0" y="458.4" width="42" height="20" rx="6" fill="#ffffff" opacity="0.94"/>
  <text x="670.0" y="472.4" text-anchor="middle" class="arrow-label">call</text>
  <rect x="346.0" y="682.0" width="98" height="20" rx="6" fill="#ffffff" opacity="0.94"/>
  <text x="395.0" y="696.0" text-anchor="middle" class="arrow-label">build prompt</text>
  <rect x="705.0" y="664.0" width="70" height="20" rx="6" fill="#ffffff" opacity="0.94"/>
  <text x="740.0" y="678.0" text-anchor="middle" class="arrow-label">messages</text>
  <rect x="1042.5" y="664.0" width="70" height="20" rx="6" fill="#ffffff" opacity="0.94"/>
  <text x="1077.5" y="678.0" text-anchor="middle" class="arrow-label">response</text>
  <rect x="1355.5" y="533.8" width="63" height="20" rx="6" fill="#ffffff" opacity="0.94"/>
  <text x="1387.0" y="547.8" text-anchor="middle" class="arrow-label">actions</text>
  <rect x="792.0" y="488.4" width="91" height="20" rx="6" fill="#ffffff" opacity="0.94"/>
  <text x="837.5" y="502.4" text-anchor="middle" class="arrow-label">driver call</text>
  <rect x="394.5" y="922.0" width="126" height="20" rx="6" fill="#ffffff" opacity="0.94"/>
  <text x="457.5" y="936.0" text-anchor="middle" class="arrow-label">GUI side effects</text>
  <rect x="731.0" y="647.8" width="168" height="20" rx="6" fill="#ffffff" opacity="0.94"/>
  <text x="815.0" y="661.8" text-anchor="middle" class="arrow-label">next screenshot / tree</text>
  <rect x="817.0" y="905.5" width="91" height="20" rx="6" fill="#ffffff" opacity="0.94"/>
  <text x="862.5" y="919.5" text-anchor="middle" class="arrow-label">final state</text>
  <rect x="1190.5" y="905.0" width="49" height="20" rx="6" fill="#ffffff" opacity="0.94"/>
  <text x="1215.0" y="919.0" text-anchor="middle" class="arrow-label">score</text>
  <rect x="1186.0" y="258.4" width="133" height="20" rx="6" fill="#ffffff" opacity="0.94"/>
  <text x="1252.5" y="272.4" text-anchor="middle" class="arrow-label">traj / logs / mp4</text>
  <rect x="32.0" y="1006.0" width="205" height="90" rx="10" fill="#ffffff" opacity="0.88"/>
  <line x1="42.0" y1="1020.0" x2="72.0" y2="1020.0" stroke="#7c3aed" stroke-width="2.4" marker-end="url(#arrowA)"/>
  <text x="82.0" y="1024.0" class="legend">紫色：控制流 / 调用关系</text>
  <line x1="42.0" y1="1042.0" x2="72.0" y2="1042.0" stroke="#f97316" stroke-width="2.4" marker-end="url(#arrowE)"/>
  <text x="82.0" y="1046.0" class="legend">橙色：观测 / 模型响应 / 评测数据</text>
  <line x1="42.0" y1="1064.0" x2="72.0" y2="1064.0" stroke="#10b981" stroke-width="2.4" marker-end="url(#arrowB)"/>
  <text x="82.0" y="1068.0" class="legend">绿色：结果写入 / 落盘</text>
  <text x="42.0" y="1104.0" class="footnote">关键主线：run_multienv_xxx.py -&gt; lib_run_single.* -&gt; DesktopEnv.reset/_get_obs/step/evaluate -&gt; mm_agents/*</text>
</svg>