<svg xmlns="http://www.w3.org/2000/svg" viewBox="0 0 1600 980" width="1600" height="980">
  <defs>
    <marker id="arrowA" markerWidth="10" markerHeight="7" refX="9" refY="3.5" orient="auto">
      <polygon points="0 0, 10 3.5, 0 7" fill="#7c3aed"/>
    </marker>
    <marker id="arrowB" markerWidth="10" markerHeight="7" refX="9" refY="3.5" orient="auto">
      <polygon points="0 0, 10 3.5, 0 7" fill="#10b981"/>
    </marker>
    <marker id="arrowC" markerWidth="10" markerHeight="7" refX="9" refY="3.5" orient="auto">
      <polygon points="0 0, 10 3.5, 0 7" fill="#2563eb"/>
    </marker>
    <marker id="arrowE" markerWidth="10" markerHeight="7" refX="9" refY="3.5" orient="auto">
      <polygon points="0 0, 10 3.5, 0 7" fill="#f97316"/>
    </marker>
    <marker id="arrowF" markerWidth="10" markerHeight="7" refX="9" refY="3.5" orient="auto">
      <polygon points="0 0, 10 3.5, 0 7" fill="#7c3aed"/>
    </marker>
    <marker id="arrowG" markerWidth="10" markerHeight="7" refX="9" refY="3.5" orient="auto">
      <polygon points="0 0, 10 3.5, 0 7" fill="#ef4444"/>
    </marker>
    <marker id="arrowH" markerWidth="10" markerHeight="7" refX="9" refY="3.5" orient="auto">
      <polygon points="0 0, 10 3.5, 0 7" fill="#6b7280"/>
    </marker>
    <filter id="shadowSoft" x="-20%" y="-20%" width="140%" height="160%">
      <feDropShadow dx="0" dy="3" stdDeviation="6" flood-color="#0f172a" flood-opacity="0.12"/>
    </filter>
    <filter id="shadowGlass" x="-20%" y="-20%" width="140%" height="160%">
      <feDropShadow dx="0" dy="10" stdDeviation="16" flood-color="#020617" flood-opacity="0.28"/>
    </filter>
    <style>
    text { font-family: 'Helvetica Neue', Helvetica, Arial, 'PingFang SC', 'Microsoft YaHei', 'Microsoft JhengHei', 'SimHei', sans-serif; }
    .title { font-size: 30px; font-weight: 700; fill: #111827; }
    .subtitle { font-size: 14px; font-weight: 500; fill: #6b7280; }
    .section { font-size: 13px; font-weight: 700; fill: #2563eb; letter-spacing: 1.4px; }
    .section-sub { font-size: 12px; font-weight: 500; fill: #94a3b8; }
    .node-title { font-size: 18px; font-weight: 700; fill: #111827; }
    .node-sub { font-size: 12px; font-weight: 500; fill: #6b7280; }
    .node-type { font-size: 12px; font-weight: 700; fill: #9ca3af; letter-spacing: 0.08em; }
    .arrow-label { font-size: 12px; font-weight: 600; fill: #6b7280; }
    .legend { font-size: 12px; font-weight: 500; fill: #6b7280; }
    .footnote { font-size: 12px; font-weight: 500; fill: #94a3b8; }
    </style>
  </defs>
  <rect width="1600.0" height="980.0" fill="#ffffff"/>
  <text x="800.0" y="56" text-anchor="middle" class="title">Standard Runner vs Special-case Runner</text>
  <text x="800.0" y="82" text-anchor="middle" class="subtitle">左边是 PromptAgent / SeedAgent 的标准接法，右边是 OpenAICUAAgent 的特例接法</text>
  <rect x="70.0" y="120.0" width="690.0" height="730.0" rx="16.0" fill="none" stroke="#dbe5f1" stroke-width="1.4" stroke-dasharray="6 5"/>
  <text x="88.0" y="144.0" class="section">STANDARD LANE</text>
  <text x="88.0" y="164.0" class="section-sub">PromptAgent / SeedAgent</text>
  <text x="52.0" y="485.0" text-anchor="end" dominant-baseline="middle" font-size="14.0" font-weight="600" fill="#6b7280">标准路径</text>
  <rect x="840.0" y="120.0" width="690.0" height="730.0" rx="16.0" fill="none" stroke="#dbe5f1" stroke-width="1.4" stroke-dasharray="6 5"/>
  <text x="858.0" y="144.0" class="section">SPECIAL LANE</text>
  <text x="858.0" y="164.0" class="section-sub">OpenAICUAAgent</text>
  <text x="822.0" y="485.0" text-anchor="end" dominant-baseline="middle" font-size="14.0" font-weight="600" fill="#6b7280">特例路径</text>
  <path d="M 295.0,271.0 L 295.0,315.0" fill="none" stroke="#7c3aed" stroke-width="2.4" marker-end="url(#arrowA)"/>
  <path d="M 295.0,271.0 L 295.0,445.0" fill="none" stroke="#7c3aed" stroke-width="2.4" marker-end="url(#arrowA)"/>
  <path d="M 425.0,489.0 L 445.4,489.0 L 464.6,366.0 L 485.0,366.0" fill="none" stroke="#7c3aed" stroke-width="2.4" marker-end="url(#arrowA)"/>
  <path d="M 602.5,412.0 L 602.5,455.0" fill="none" stroke="#7c3aed" stroke-width="2.4" marker-end="url(#arrowA)"/>
  <path d="M 602.5,537.0 L 602.5,659.0 L 640.0,659.0" fill="none" stroke="#7c3aed" stroke-width="2.4" marker-end="url(#arrowA)"/>
  <path d="M 1070.0,271.0 L 1070.0,315.0" fill="none" stroke="#7c3aed" stroke-width="2.4" marker-end="url(#arrowA)"/>
  <path d="M 1070.0,271.0 L 1070.0,445.0" fill="none" stroke="#7c3aed" stroke-width="2.4" marker-end="url(#arrowA)"/>
  <path d="M 1205.0,489.0 L 1225.4,489.0 L 1244.6,359.0 L 1265.0,359.0" fill="none" stroke="#7c3aed" stroke-width="2.4" marker-end="url(#arrowA)"/>
  <path d="M 1370.0,413.0 L 1370.0,445.0" fill="none" stroke="#7c3aed" stroke-width="2.4" marker-end="url(#arrowA)"/>
  <path d="M 1370.0,543.0 L 1370.0,659.0 L 960.0,659.0" fill="none" stroke="#7c3aed" stroke-width="2.4" marker-end="url(#arrowA)"/>
  <path d="M 640.0,659.0 L 602.5,659.0 L 602.5,412.0" fill="none" stroke="#f97316" stroke-width="2.4" marker-end="url(#arrowE)"/>
  <path d="M 960.0,659.0 L 1370.0,659.0 L 1370.0,413.0" fill="none" stroke="#f97316" stroke-width="2.4" marker-end="url(#arrowE)"/>
  <path d="M 295.0,533.0 L 295.0,553.4 L 800.0,729.6 L 800.0,750.0" fill="none" stroke="#10b981" stroke-width="2.4" marker-end="url(#arrowB)"/>
  <path d="M 1070.0,533.0 L 1070.0,553.4 L 800.0,729.6 L 800.0,750.0" fill="none" stroke="#10b981" stroke-width="2.4" marker-end="url(#arrowB)"/>
  <rect x="165.0" y="175.0" width="260.0" height="96.0" rx="10.0" fill="#ffffff" stroke="#d1d5db" stroke-width="2.0" filter="url(#shadowSoft)"/>
  <rect x="165.0" y="175.0" width="260.0" height="18" rx="10.0" fill="#1f2937" opacity="0.95"/>
  <circle cx="181.0" cy="184.0" r="4" fill="#ef4444"/>
  <circle cx="195.0" cy="184.0" r="4" fill="#f59e0b"/>
  <circle cx="209.0" cy="184.0" r="4" fill="#10b981"/>
  <text x="183.0" y="219.0" font-size="28" font-weight="700" fill="#10b981">$</text>
  <text x="203.0" y="219.0" font-size="22" font-weight="500" fill="#6b7280">_</text>
  <text x="295.0" y="257.0" text-anchor="middle" class="node-title">run_multienv.py</text>
  <text x="295.0" y="291.0" text-anchor="middle" class="node-sub">或 run_multienv_seedagent.py</text>
  <path d="M 187.0 315.0 L 403.0 315.0 L 425.0 361.0 L 403.0 407.0 L 187.0 407.0 L 165.0 361.0 Z" fill="#eff6ff" stroke="#2563eb" stroke-width="2.0" filter="url(#shadowSoft)"/>
  <text x="295.0" y="361.0" text-anchor="middle" class="node-title">PromptAgent / SeedAgent</text>
  <text x="295.0" y="383.0" text-anchor="middle" class="node-sub">reset + predict</text>
  <rect x="165.0" y="445.0" width="260.0" height="88.0" rx="10.0" fill="#ffffff" stroke="#d1d5db" stroke-width="1.8" filter="url(#shadowSoft)"/>
  <text x="295.0" y="489.0" text-anchor="middle" class="node-title">run_single_example(...)</text>
  <text x="295.0" y="511.0" text-anchor="middle" class="node-sub">标准 rollout</text>
  <rect x="485.0" y="320.0" width="235.0" height="92.0" rx="10.0" fill="#ffffff" stroke="#d1d5db" stroke-width="1.8" filter="url(#shadowSoft)"/>
  <text x="602.5" y="366.0" text-anchor="middle" class="node-title">predict(...)</text>
  <text x="602.5" y="388.0" text-anchor="middle" class="node-sub">response, actions</text>
  <rect x="485.0" y="455.0" width="235.0" height="82.0" rx="10.0" fill="#ffffff" stroke="#d1d5db" stroke-width="1.8" filter="url(#shadowSoft)"/>
  <text x="602.5" y="496.0" text-anchor="middle" class="node-title">env.step(action)</text>
  <text x="602.5" y="518.0" text-anchor="middle" class="node-sub">直接执行</text>
  <rect x="935.0" y="175.0" width="270.0" height="96.0" rx="10.0" fill="#ffffff" stroke="#d1d5db" stroke-width="2.0" filter="url(#shadowSoft)"/>
  <rect x="935.0" y="175.0" width="270.0" height="18" rx="10.0" fill="#1f2937" opacity="0.95"/>
  <circle cx="951.0" cy="184.0" r="4" fill="#ef4444"/>
  <circle cx="965.0" cy="184.0" r="4" fill="#f59e0b"/>
  <circle cx="979.0" cy="184.0" r="4" fill="#10b981"/>
  <text x="953.0" y="219.0" font-size="28" font-weight="700" fill="#10b981">$</text>
  <text x="973.0" y="219.0" font-size="22" font-weight="500" fill="#6b7280">_</text>
  <text x="1070.0" y="257.0" text-anchor="middle" class="node-title">run_multienv_openaicua.py</text>
  <text x="1070.0" y="291.0" text-anchor="middle" class="node-sub">专用 runner</text>
  <path d="M 957.0 315.0 L 1183.0 315.0 L 1205.0 361.0 L 1183.0 407.0 L 957.0 407.0 L 935.0 361.0 Z" fill="#fef2f2" stroke="#dc2626" stroke-width="2.0" filter="url(#shadowSoft)"/>
  <text x="1070.0" y="361.0" text-anchor="middle" class="node-title">OpenAICUAAgent + env</text>
  <text x="1070.0" y="383.0" text-anchor="middle" class="node-sub">predict + step</text>
  <rect x="935.0" y="445.0" width="270.0" height="88.0" rx="10.0" fill="#ffffff" stroke="#d1d5db" stroke-width="1.8" filter="url(#shadowSoft)"/>
  <text x="1070.0" y="489.0" text-anchor="middle" class="node-title">run_single_example_openaicua(...)</text>
  <text x="1070.0" y="511.0" text-anchor="middle" class="node-sub">特例 rollout</text>
  <rect x="1265.0" y="305.0" width="210.0" height="108.0" rx="10.0" fill="#ffffff" stroke="#d1d5db" stroke-width="1.8" filter="url(#shadowSoft)"/>
  <text x="1370.0" y="359.0" text-anchor="middle" class="node-title">predict(...)</text>
  <text x="1370.0" y="381.0" text-anchor="middle" class="node-sub">predict_info + actions + state_correct</text>
  <rect x="1265.0" y="445.0" width="210.0" height="98.0" rx="10.0" fill="#ffffff" stroke="#d1d5db" stroke-width="1.8" filter="url(#shadowSoft)"/>
  <text x="1370.0" y="494.0" text-anchor="middle" class="node-title">agent.step(action)</text>
  <text x="1370.0" y="516.0" text-anchor="middle" class="node-sub">内部再调 env.step(...)</text>
  <rect x="640.0" y="615.0" width="320.0" height="88.0" rx="10.0" fill="#ffffff" stroke="#d1d5db" stroke-width="1.8" filter="url(#shadowSoft)"/>
  <text x="800.0" y="659.0" text-anchor="middle" class="node-title">DesktopEnv + VM</text>
  <text x="800.0" y="681.0" text-anchor="middle" class="node-sub">两条路径最终都操作同一个环境抽象</text>
  <path d="M 635.0 768.0 L 656.6 768.0 L 666.32 750.0 L 689.0 750.0 L 965.0 750.0 L 965.0 842.0 L 635.0 842.0 Z" fill="#ffffff" stroke="#d1d5db" stroke-width="2.0" filter="url(#shadowSoft)"/>
  <line x1="657.0" y1="792.0" x2="943.0" y2="792.0" stroke="#d1d5db" stroke-opacity="0.35" stroke-width="1.2"/>
  <line x1="657.0" y1="806.0" x2="943.0" y2="806.0" stroke="#d1d5db" stroke-opacity="0.35" stroke-width="1.2"/>
  <line x1="657.0" y1="820.0" x2="943.0" y2="820.0" stroke="#d1d5db" stroke-opacity="0.35" stroke-width="1.2"/>
  <text x="800.0" y="868.0" text-anchor="middle" class="node-title">共同产物</text>
  <text x="800.0" y="886.0" text-anchor="middle" class="node-sub">traj.jsonl / result.txt / recording.mp4 / runtime.log</text>
  <rect x="406.0" y="413.5" width="98" height="20" rx="6" fill="#ffffff" opacity="0.94"/>
  <text x="455.0" y="427.5" text-anchor="middle" class="arrow-label">call predict</text>
  <rect x="553.0" y="419.5" width="63" height="20" rx="6" fill="#ffffff" opacity="0.94"/>
  <text x="584.5" y="433.5" text-anchor="middle" class="arrow-label">actions</text>
  <rect x="539.0" y="584.0" width="91" height="20" rx="6" fill="#ffffff" opacity="0.94"/>
  <text x="584.5" y="598.0" text-anchor="middle" class="arrow-label">direct step</text>
  <rect x="1186.0" y="410.0" width="98" height="20" rx="6" fill="#ffffff" opacity="0.94"/>
  <text x="1235.0" y="424.0" text-anchor="middle" class="arrow-label">call predict</text>
  <rect x="1324.5" y="415.0" width="91" height="20" rx="6" fill="#ffffff" opacity="0.94"/>
  <text x="1370.0" y="429.0" text-anchor="middle" class="arrow-label">action dict</text>
  <rect x="1109.0" y="629.0" width="112" height="20" rx="6" fill="#ffffff" opacity="0.94"/>
  <text x="1165.0" y="643.0" text-anchor="middle" class="arrow-label">step via agent</text>
  <rect x="567.5" y="521.5" width="70" height="20" rx="6" fill="#ffffff" opacity="0.94"/>
  <text x="602.5" y="535.5" text-anchor="middle" class="arrow-label">obs loop</text>
  <rect x="1130.0" y="661.0" width="70" height="20" rx="6" fill="#ffffff" opacity="0.94"/>
  <text x="1165.0" y="675.0" text-anchor="middle" class="arrow-label">obs loop</text>
  <rect x="498.5" y="611.5" width="98" height="20" rx="6" fill="#ffffff" opacity="0.94"/>
  <text x="547.5" y="625.5" text-anchor="middle" class="arrow-label">logs / score</text>
  <rect x="886.0" y="627.5" width="98" height="20" rx="6" fill="#ffffff" opacity="0.94"/>
  <text x="935.0" y="641.5" text-anchor="middle" class="arrow-label">logs / score</text>
  <rect x="32.0" y="866.0" width="296" height="90" rx="10" fill="#ffffff" opacity="0.88"/>
  <line x1="42.0" y1="880.0" x2="72.0" y2="880.0" stroke="#7c3aed" stroke-width="2.4" marker-end="url(#arrowA)"/>
  <text x="82.0" y="884.0" class="legend">紫色：标准或特例中的控制调用</text>
  <line x1="42.0" y1="902.0" x2="72.0" y2="902.0" stroke="#f97316" stroke-width="2.4" marker-end="url(#arrowE)"/>
  <text x="82.0" y="906.0" class="legend">橙色：观测 / response / state_correct</text>
  <line x1="42.0" y1="924.0" x2="72.0" y2="924.0" stroke="#10b981" stroke-width="2.4" marker-end="url(#arrowB)"/>
  <text x="82.0" y="928.0" class="legend">绿色：结果写入</text>
  <text x="42.0" y="964.0" class="footnote">核心差异：标准链路直接 env.step(...)；特例链路先 agent.step(...) 再 env.step(...)</text>
</svg>