<svg xmlns="http://www.w3.org/2000/svg" viewBox="0 0 1600 980" width="1600" height="980">
  <defs>
    <marker id="arrowA" markerWidth="10" markerHeight="7" refX="9" refY="3.5" orient="auto">
      <polygon points="0 0, 10 3.5, 0 7" fill="#7c3aed"/>
    </marker>
    <marker id="arrowB" markerWidth="10" markerHeight="7" refX="9" refY="3.5" orient="auto">
      <polygon points="0 0, 10 3.5, 0 7" fill="#10b981"/>
    </marker>
    <marker id="arrowC" markerWidth="10" markerHeight="7" refX="9" refY="3.5" orient="auto">
      <polygon points="0 0, 10 3.5, 0 7" fill="#2563eb"/>
    </marker>
    <marker id="arrowE" markerWidth="10" markerHeight="7" refX="9" refY="3.5" orient="auto">
      <polygon points="0 0, 10 3.5, 0 7" fill="#f97316"/>
    </marker>
    <marker id="arrowF" markerWidth="10" markerHeight="7" refX="9" refY="3.5" orient="auto">
      <polygon points="0 0, 10 3.5, 0 7" fill="#7c3aed"/>
    </marker>
    <marker id="arrowG" markerWidth="10" markerHeight="7" refX="9" refY="3.5" orient="auto">
      <polygon points="0 0, 10 3.5, 0 7" fill="#ef4444"/>
    </marker>
    <marker id="arrowH" markerWidth="10" markerHeight="7" refX="9" refY="3.5" orient="auto">
      <polygon points="0 0, 10 3.5, 0 7" fill="#6b7280"/>
    </marker>
    <filter id="shadowSoft" x="-20%" y="-20%" width="140%" height="160%">
      <feDropShadow dx="0" dy="3" stdDeviation="6" flood-color="#0f172a" flood-opacity="0.12"/>
    </filter>
    <filter id="shadowGlass" x="-20%" y="-20%" width="140%" height="160%">
      <feDropShadow dx="0" dy="10" stdDeviation="16" flood-color="#020617" flood-opacity="0.28"/>
    </filter>
    <style>
    text { font-family: 'Helvetica Neue', Helvetica, Arial, 'PingFang SC', 'Microsoft YaHei', 'Microsoft JhengHei', 'SimHei', sans-serif; }
    .title { font-size: 30px; font-weight: 700; fill: #111827; }
    .subtitle { font-size: 14px; font-weight: 500; fill: #6b7280; }
    .section { font-size: 13px; font-weight: 700; fill: #2563eb; letter-spacing: 1.4px; }
    .section-sub { font-size: 12px; font-weight: 500; fill: #94a3b8; }
    .node-title { font-size: 18px; font-weight: 700; fill: #111827; }
    .node-sub { font-size: 12px; font-weight: 500; fill: #6b7280; }
    .node-type { font-size: 12px; font-weight: 700; fill: #9ca3af; letter-spacing: 0.08em; }
    .arrow-label { font-size: 12px; font-weight: 600; fill: #6b7280; }
    .legend { font-size: 12px; font-weight: 500; fill: #6b7280; }
    .footnote { font-size: 12px; font-weight: 500; fill: #94a3b8; }
    </style>
  </defs>
  <rect width="1600.0" height="980.0" fill="#ffffff"/>
  <text x="800.0" y="56" text-anchor="middle" class="title">What You Must Configure Before Practicing Agents</text>
  <text x="800.0" y="82" text-anchor="middle" class="subtitle">把你第一次试跑 agent 时真正需要关注的配置点收拢到一张图里</text>
  <rect x="70.0" y="130.0" width="430.0" height="690.0" rx="16.0" fill="none" stroke="#dbe5f1" stroke-width="1.4" stroke-dasharray="6 5"/>
  <text x="88.0" y="154.0" class="section">01 PROVIDER + TASK</text>
  <text x="88.0" y="174.0" class="section-sub">虚拟机路径、provider、单任务 smoke test</text>
  <text x="52.0" y="475.0" text-anchor="end" dominant-baseline="middle" font-size="14.0" font-weight="600" fill="#6b7280">输入</text>
  <rect x="545.0" y="130.0" width="510.0" height="690.0" rx="16.0" fill="none" stroke="#dbe5f1" stroke-width="1.4" stroke-dasharray="6 5"/>
  <text x="563.0" y="154.0" class="section">02 CLI ARGS</text>
  <text x="563.0" y="174.0" class="section-sub">运行脚本时显式传入的关键参数</text>
  <text x="527.0" y="475.0" text-anchor="end" dominant-baseline="middle" font-size="14.0" font-weight="600" fill="#6b7280">命令行</text>
  <rect x="1100.0" y="130.0" width="430.0" height="690.0" rx="16.0" fill="none" stroke="#dbe5f1" stroke-width="1.4" stroke-dasharray="6 5"/>
  <text x="1118.0" y="154.0" class="section">03 AGENT SECRETS + OUTPUTS</text>
  <text x="1118.0" y="174.0" class="section-sub">.env 中的模型凭据，以及结果目录里的关键证据</text>
  <text x="1082.0" y="475.0" text-anchor="end" dominant-baseline="middle" font-size="14.0" font-weight="600" fill="#6b7280">环境变量</text>
  <path d="M 440.0,238.0 L 460.4,238.0 L 649.6,253.0 L 670.0,253.0" fill="none" stroke="#7c3aed" stroke-width="2.4" marker-end="url(#arrowA)"/>
  <path d="M 440.0,374.0 L 460.4,374.0 L 649.6,253.0 L 670.0,253.0" fill="none" stroke="#7c3aed" stroke-width="2.4" marker-end="url(#arrowA)"/>
  <path d="M 440.0,520.0 L 460.4,520.0 L 649.6,253.0 L 670.0,253.0" fill="none" stroke="#f97316" stroke-width="2.4" marker-end="url(#arrowE)"/>
  <path d="M 440.0,671.0 L 460.4,671.0 L 649.6,253.0 L 670.0,253.0" fill="none" stroke="#7c3aed" stroke-width="2.4" marker-end="url(#arrowA)"/>
  <path d="M 800.0,301.0 L 800.0,350.0" fill="none" stroke="#7c3aed" stroke-width="2.4" marker-end="url(#arrowA)"/>
  <path d="M 800.0,301.0 L 800.0,321.4 L 601.0,321.4 L 601.0,464.6 L 800.0,464.6 L 800.0,485.0" fill="none" stroke="#7c3aed" stroke-width="2.4" marker-end="url(#arrowA)"/>
  <path d="M 800.0,301.0 L 800.0,321.4 L 601.0,321.4 L 601.0,604.6 L 800.0,604.6 L 800.0,625.0" fill="none" stroke="#7c3aed" stroke-width="2.4" marker-end="url(#arrowA)"/>
  <path d="M 1315.0,273.0 L 1315.0,320.0" fill="none" stroke="#f97316" stroke-width="2.4" marker-end="url(#arrowE)"/>
  <path d="M 1315.0,273.0 L 1315.0,445.0" fill="none" stroke="#f97316" stroke-width="2.4" marker-end="url(#arrowE)"/>
  <path d="M 1315.0,273.0 L 1315.0,570.0" fill="none" stroke="#f97316" stroke-width="2.4" marker-end="url(#arrowE)"/>
  <path d="M 1160.0,364.0 L 1139.6,364.0 L 950.4,253.0 L 930.0,253.0" fill="none" stroke="#f97316" stroke-width="2.4" marker-end="url(#arrowE)"/>
  <path d="M 1160.0,489.0 L 1139.6,489.0 L 950.4,253.0 L 930.0,253.0" fill="none" stroke="#f97316" stroke-width="2.4" marker-end="url(#arrowE)"/>
  <path d="M 1160.0,614.0 L 1139.6,614.0 L 950.4,253.0 L 930.0,253.0" fill="none" stroke="#f97316" stroke-width="2.4" marker-end="url(#arrowE)"/>
  <path d="M 930.0,253.0 L 950.4,253.0 L 1124.6,754.0 L 1145.0,754.0" fill="none" stroke="#10b981" stroke-width="2.4" marker-end="url(#arrowB)"/>
  <path d="M 120.0 208.0 L 141.6 208.0 L 151.32 190.0 L 174.0 190.0 L 440.0 190.0 L 440.0 286.0 L 120.0 286.0 Z" fill="#ffffff" stroke="#d1d5db" stroke-width="2.0" filter="url(#shadowSoft)"/>
  <line x1="142.0" y1="232.0" x2="418.0" y2="232.0" stroke="#d1d5db" stroke-opacity="0.35" stroke-width="1.2"/>
  <line x1="142.0" y1="246.0" x2="418.0" y2="246.0" stroke="#d1d5db" stroke-opacity="0.35" stroke-width="1.2"/>
  <line x1="142.0" y1="260.0" x2="418.0" y2="260.0" stroke="#d1d5db" stroke-opacity="0.35" stroke-width="1.2"/>
  <text x="280.0" y="312.0" text-anchor="middle" class="node-title">VMware .vmx 路径</text>
  <text x="280.0" y="330.0" text-anchor="middle" class="node-sub">/Users/.../Ubuntu 64 位 ARM 26.04.vmx</text>
  <rect x="120.0" y="330.0" width="320.0" height="88.0" rx="10.0" fill="#ffffff" stroke="#d1d5db" stroke-width="1.8" filter="url(#shadowSoft)"/>
  <text x="280.0" y="374.0" text-anchor="middle" class="node-title">--provider_name vmware</text>
  <text x="280.0" y="396.0" text-anchor="middle" class="node-sub">第一次实践先保持和当前环境一致</text>
  <path d="M 120.0 470.0 L 422.0 470.0 L 440.0 488.0 L 440.0 570.0 L 120.0 570.0 Z" fill="#ffffff" stroke="#d1d5db" stroke-width="2.0" filter="url(#shadowSoft)"/>
  <path d="M 422.0 470.0 L 422.0 488.0 L 440.0 488.0" fill="none" stroke="#d1d5db" stroke-width="2.0"/>
  <line x1="138.0" y1="496.0" x2="412.0" y2="496.0" stroke="#c4b5fd" stroke-width="1.2"/>
  <line x1="138.0" y1="510.0" x2="412.0" y2="510.0" stroke="#c4b5fd" stroke-width="1.2"/>
  <line x1="138.0" y1="524.0" x2="412.0" y2="524.0" stroke="#c4b5fd" stroke-width="1.2"/>
  <line x1="138.0" y1="538.0" x2="412.0" y2="538.0" stroke="#c4b5fd" stroke-width="1.2"/>
  <text x="280.0" y="596.0" text-anchor="middle" class="node-title">单任务 meta</text>
  <text x="280.0" y="614.0" text-anchor="middle" class="node-sub">docs/code-reading/examples/test_one_chrome.json</text>
  <rect x="120.0" y="625.0" width="320.0" height="92.0" rx="10.0" fill="#ffffff" stroke="#d1d5db" stroke-width="1.8" filter="url(#shadowSoft)"/>
  <text x="280.0" y="671.0" text-anchor="middle" class="node-title">Smoke test 目标</text>
  <text x="280.0" y="693.0" text-anchor="middle" class="node-sub">先确认链路通，再追求 benchmark 分数</text>
  <rect x="670.0" y="205.0" width="260.0" height="96.0" rx="10.0" fill="#ffffff" stroke="#d1d5db" stroke-width="2.0" filter="url(#shadowSoft)"/>
  <rect x="670.0" y="205.0" width="260.0" height="18" rx="10.0" fill="#1f2937" opacity="0.95"/>
  <circle cx="686.0" cy="214.0" r="4" fill="#ef4444"/>
  <circle cx="700.0" cy="214.0" r="4" fill="#f59e0b"/>
  <circle cx="714.0" cy="214.0" r="4" fill="#10b981"/>
  <text x="688.0" y="249.0" font-size="28" font-weight="700" fill="#10b981">$</text>
  <text x="708.0" y="249.0" font-size="22" font-weight="500" fill="#6b7280">_</text>
  <text x="800.0" y="287.0" text-anchor="middle" class="node-title">run_multienv_xxx.py</text>
  <text x="800.0" y="321.0" text-anchor="middle" class="node-sub">Prompt / Seed / CUA</text>
  <rect x="625.0" y="350.0" width="350.0" height="90.0" rx="10.0" fill="#ffffff" stroke="#d1d5db" stroke-width="1.8" filter="url(#shadowSoft)"/>
  <text x="800.0" y="395.0" text-anchor="middle" class="node-title">必须先确定</text>
  <text x="800.0" y="417.0" text-anchor="middle" class="node-sub">--action_space pyautogui + --observation_type screenshot</text>
  <rect x="625.0" y="485.0" width="350.0" height="94.0" rx="10.0" fill="#ffffff" stroke="#d1d5db" stroke-width="1.8" filter="url(#shadowSoft)"/>
  <text x="800.0" y="532.0" text-anchor="middle" class="node-title">推荐初始参数</text>
  <text x="800.0" y="554.0" text-anchor="middle" class="node-sub">--num_envs 1 + --result_dir ./results/... + --model ...</text>
  <rect x="625.0" y="625.0" width="350.0" height="96.0" rx="10.0" fill="#ffffff" stroke="#d1d5db" stroke-width="1.8" filter="url(#shadowSoft)"/>
  <text x="800.0" y="673.0" text-anchor="middle" class="node-title">显式传入</text>
  <text x="800.0" y="695.0" text-anchor="middle" class="node-sub">--path_to_vm / --provider_name / --test_all_meta_path</text>
  <path d="M 1160.0 185.0 L 1452.0 185.0 L 1470.0 203.0 L 1470.0 273.0 L 1160.0 273.0 Z" fill="#ffffff" stroke="#d1d5db" stroke-width="2.0" filter="url(#shadowSoft)"/>
  <path d="M 1452.0 185.0 L 1452.0 203.0 L 1470.0 203.0" fill="none" stroke="#d1d5db" stroke-width="2.0"/>
  <line x1="1178.0" y1="211.0" x2="1442.0" y2="211.0" stroke="#c4b5fd" stroke-width="1.2"/>
  <line x1="1178.0" y1="225.0" x2="1442.0" y2="225.0" stroke="#c4b5fd" stroke-width="1.2"/>
  <line x1="1178.0" y1="239.0" x2="1442.0" y2="239.0" stroke="#c4b5fd" stroke-width="1.2"/>
  <line x1="1178.0" y1="253.0" x2="1442.0" y2="253.0" stroke="#c4b5fd" stroke-width="1.2"/>
  <text x="1315.0" y="299.0" text-anchor="middle" class="node-title">.env</text>
  <text x="1315.0" y="317.0" text-anchor="middle" class="node-sub">repo 根目录，runner 启动时自动 load</text>
  <rect x="1160.0" y="320.0" width="310.0" height="88.0" rx="10.0" fill="#ffffff" stroke="#d1d5db" stroke-width="1.8" filter="url(#shadowSoft)"/>
  <text x="1315.0" y="364.0" text-anchor="middle" class="node-title">PromptAgent</text>
  <text x="1315.0" y="386.0" text-anchor="middle" class="node-sub">OPENAI_API_KEY</text>
  <rect x="1160.0" y="445.0" width="310.0" height="88.0" rx="10.0" fill="#ffffff" stroke="#d1d5db" stroke-width="1.8" filter="url(#shadowSoft)"/>
  <text x="1315.0" y="489.0" text-anchor="middle" class="node-title">SeedAgent</text>
  <text x="1315.0" y="511.0" text-anchor="middle" class="node-sub">DOUBAO_API_KEY + DOUBAO_API_URL</text>
  <rect x="1160.0" y="570.0" width="310.0" height="88.0" rx="10.0" fill="#ffffff" stroke="#d1d5db" stroke-width="1.8" filter="url(#shadowSoft)"/>
  <text x="1315.0" y="614.0" text-anchor="middle" class="node-title">OpenAICUAAgent</text>
  <text x="1315.0" y="636.0" text-anchor="middle" class="node-sub">OPENAI_API_KEY_CUA</text>
  <path d="M 1145.0 723.0 L 1166.6 723.0 L 1176.32 705.0 L 1199.0 705.0 L 1485.0 705.0 L 1485.0 803.0 L 1145.0 803.0 Z" fill="#ffffff" stroke="#d1d5db" stroke-width="2.0" filter="url(#shadowSoft)"/>
  <line x1="1167.0" y1="747.0" x2="1463.0" y2="747.0" stroke="#d1d5db" stroke-opacity="0.35" stroke-width="1.2"/>
  <line x1="1167.0" y1="761.0" x2="1463.0" y2="761.0" stroke="#d1d5db" stroke-opacity="0.35" stroke-width="1.2"/>
  <line x1="1167.0" y1="775.0" x2="1463.0" y2="775.0" stroke="#d1d5db" stroke-opacity="0.35" stroke-width="1.2"/>
  <text x="1315.0" y="829.0" text-anchor="middle" class="node-title">跑完以后先看</text>
  <text x="1315.0" y="847.0" text-anchor="middle" class="node-sub">traj.jsonl / runtime.log / recording.mp4 / result.txt</text>
  <rect x="506.0" y="215.5" width="98" height="20" rx="6" fill="#ffffff" opacity="0.94"/>
  <text x="555.0" y="229.5" text-anchor="middle" class="arrow-label">--path_to_vm</text>
  <rect x="495.5" y="283.5" width="119" height="20" rx="6" fill="#ffffff" opacity="0.94"/>
  <text x="555.0" y="297.5" text-anchor="middle" class="arrow-label">--provider_name</text>
  <rect x="478.0" y="372.5" width="154" height="20" rx="6" fill="#ffffff" opacity="0.94"/>
  <text x="555.0" y="386.5" text-anchor="middle" class="arrow-label">--test_all_meta_path</text>
  <rect x="530.5" y="432.0" width="49" height="20" rx="6" fill="#ffffff" opacity="0.94"/>
  <text x="555.0" y="446.0" text-anchor="middle" class="arrow-label">单任务验证</text>
  <rect x="743.5" y="311.5" width="77" height="20" rx="6" fill="#ffffff" opacity="0.94"/>
  <text x="782.0" y="325.5" text-anchor="middle" class="arrow-label">行为 / 观测协议</text>
  <rect x="679.5" y="307.4" width="42" height="20" rx="6" fill="#ffffff" opacity="0.94"/>
  <text x="700.5" y="321.4" text-anchor="middle" class="arrow-label">运行规模</text>
  <rect x="598.0" y="449.0" width="42" height="20" rx="6" fill="#ffffff" opacity="0.94"/>
  <text x="619.0" y="463.0" text-anchor="middle" class="arrow-label">环境指向</text>
  <rect x="1248.0" y="282.5" width="98" height="20" rx="6" fill="#ffffff" opacity="0.94"/>
  <text x="1297.0" y="296.5" text-anchor="middle" class="arrow-label">baseline key</text>
  <rect x="1280.0" y="345.0" width="70" height="20" rx="6" fill="#ffffff" opacity="0.94"/>
  <text x="1315.0" y="359.0" text-anchor="middle" class="arrow-label">seed key</text>
  <rect x="1283.5" y="407.5" width="63" height="20" rx="6" fill="#ffffff" opacity="0.94"/>
  <text x="1315.0" y="421.5" text-anchor="middle" class="arrow-label">CUA key</text>
  <rect x="999.5" y="278.5" width="91" height="20" rx="6" fill="#ffffff" opacity="0.94"/>
  <text x="1045.0" y="292.5" text-anchor="middle" class="arrow-label">PromptAgent</text>
  <rect x="1006.5" y="341.0" width="77" height="20" rx="6" fill="#ffffff" opacity="0.94"/>
  <text x="1045.0" y="355.0" text-anchor="middle" class="arrow-label">SeedAgent</text>
  <rect x="989.0" y="403.5" width="112" height="20" rx="6" fill="#ffffff" opacity="0.94"/>
  <text x="1045.0" y="417.5" text-anchor="middle" class="arrow-label">OpenAICUAAgent</text>
  <rect x="1016.5" y="473.5" width="42" height="20" rx="6" fill="#ffffff" opacity="0.94"/>
  <text x="1037.5" y="487.5" text-anchor="middle" class="arrow-label">产物落盘</text>
  <rect x="32.0" y="866.0" width="233" height="90" rx="10" fill="#ffffff" opacity="0.88"/>
  <line x1="42.0" y1="880.0" x2="72.0" y2="880.0" stroke="#7c3aed" stroke-width="2.4" marker-end="url(#arrowA)"/>
  <text x="82.0" y="884.0" class="legend">紫色：你显式控制的 CLI / 路径参数</text>
  <line x1="42.0" y1="902.0" x2="72.0" y2="902.0" stroke="#f97316" stroke-width="2.4" marker-end="url(#arrowE)"/>
  <text x="82.0" y="906.0" class="legend">橙色：.env 里的模型密钥或 meta 数据</text>
  <line x1="42.0" y1="924.0" x2="72.0" y2="924.0" stroke="#10b981" stroke-width="2.4" marker-end="url(#arrowB)"/>
  <text x="82.0" y="928.0" class="legend">绿色：跑完后需要检查的产物</text>
  <text x="42.0" y="964.0" class="footnote">推荐第一步：先用 docs/code-reading/examples/test_one_chrome.json 跑单任务，再看 traj.jsonl / runtime.log / recording.mp4</text>
</svg>