<svg xmlns="http://www.w3.org/2000/svg" viewBox="0 0 1280 820" width="1280" height="820">
  <style>
    text { font-family: 'Helvetica Neue', Helvetica, Arial, 'PingFang SC', 'Microsoft YaHei', 'Microsoft JhengHei', 'SimHei', sans-serif; }
    .title { font-size: 24px; font-weight: 700; fill: #111827; }
    .subtitle { font-size: 13px; fill: #6b7280; }
    .section { font-size: 15px; font-weight: 700; fill: #111827; }
    .label { font-size: 14px; font-weight: 600; fill: #111827; }
    .small { font-size: 12px; fill: #6b7280; }
    .tiny { font-size: 11px; fill: #6b7280; }
  </style>
  <defs>
    <filter id="shadow" x="-20%" y="-20%" width="140%" height="140%">
      <feDropShadow dx="0" dy="3" stdDeviation="4" flood-color="#000000" flood-opacity="0.10"/>
    </filter>
    <marker id="arrow-blue" markerWidth="10" markerHeight="7" refX="9" refY="3.5" orient="auto">
      <polygon points="0 0, 10 3.5, 0 7" fill="#2563eb"/>
    </marker>
    <marker id="arrow-orange" markerWidth="10" markerHeight="7" refX="9" refY="3.5" orient="auto">
      <polygon points="0 0, 10 3.5, 0 7" fill="#ea580c"/>
    </marker>
    <marker id="arrow-green" markerWidth="10" markerHeight="7" refX="9" refY="3.5" orient="auto">
      <polygon points="0 0, 10 3.5, 0 7" fill="#16a34a"/>
    </marker>
    <marker id="arrow-purple" markerWidth="10" markerHeight="7" refX="9" refY="3.5" orient="auto">
      <polygon points="0 0, 10 3.5, 0 7" fill="#9333ea"/>
    </marker>
    <marker id="arrow-gray" markerWidth="10" markerHeight="7" refX="9" refY="3.5" orient="auto">
      <polygon points="0 0, 10 3.5, 0 7" fill="#6b7280"/>
    </marker>
  </defs>
  <rect width="1280" height="820" fill="#ffffff"/>
  <text x="640" y="34" text-anchor="middle" class="title">CUA Blackbox 接入 OSWorld 评测技术架构</text>
  <text x="640" y="58" text-anchor="middle" class="subtitle">CUA 源码不改动：OSWorld Runner 拉起 CUA 二进制，通过 openclaw shim + bridge 操作独立桌面环境</text>
  <rect x="40" y="88" width="1200" height="132" rx="14" fill="#f8fafc" stroke="#cbd5e1" stroke-width="1.5"/>
  <text x="60" y="116" class="section">1. 控制平面：OSWorld Host</text>
  <rect x="40" y="248" width="1200" height="250" rx="14" fill="#f8fafc" stroke="#cbd5e1" stroke-width="1.5"/>
  <text x="60" y="276" class="section">2. Worker 运行时：num_envs=N 时复制 N 份</text>
  <rect x="40" y="526" width="1200" height="144" rx="14" fill="#f8fafc" stroke="#cbd5e1" stroke-width="1.5"/>
  <text x="60" y="554" class="section">3. 环境 Provider：每个 Worker 必须绑定独立环境</text>
  <rect x="40" y="696" width="1200" height="86" rx="14" fill="#f8fafc" stroke="#cbd5e1" stroke-width="1.5"/>
  <text x="60" y="724" class="section">4. 结果与验收产物</text>
  <rect x="70" y="136" width="150" height="56" rx="10" fill="#eff6ff" stroke="#bfdbfe" stroke-width="1.5" filter="url(#shadow)"/>
  <text x="145.0" y="160" text-anchor="middle" class="label">评测命令</text>
  <text x="145.0" y="183" text-anchor="middle" class="small">num_envs / provider</text>
  <rect x="270" y="126" width="190" height="76" rx="10" fill="#eff6ff" stroke="#bfdbfe" stroke-width="1.5" filter="url(#shadow)"/>
  <text x="365.0" y="150" text-anchor="middle" class="label">Blackbox Runner</text>
  <text x="365.0" y="173" text-anchor="middle" class="small">分发任务 / 管理 worker</text>
  <rect x="520" y="136" width="160" height="56" rx="10" fill="#fff7ed" stroke="#fed7aa" stroke-width="1.5" filter="url(#shadow)"/>
  <text x="600.0" y="160" text-anchor="middle" class="label">Task Queue</text>
  <text x="600.0" y="183" text-anchor="middle" class="small">domain + example_id</text>
  <rect x="740" y="126" width="180" height="76" rx="10" fill="#f0fdf4" stroke="#bbf7d0" stroke-width="1.5" filter="url(#shadow)"/>
  <text x="830.0" y="150" text-anchor="middle" class="label">Test Metadata</text>
  <text x="830.0" y="173" text-anchor="middle" class="small">test_all / regression</text>
  <rect x="980" y="126" width="200" height="76" rx="10" fill="#faf5ff" stroke="#e9d5ff" stroke-width="1.5" filter="url(#shadow)"/>
  <text x="1080.0" y="150" text-anchor="middle" class="label">Summary Builder</text>
  <text x="1080.0" y="173" text-anchor="middle" class="small">summary / failure</text>
  <path d="M 220 164 L 270 164" fill="none" stroke="#ea580c" stroke-width="2" marker-end="url(#arrow-orange)"/>
  <rect x="223.0" y="142" width="44" height="18" rx="4" fill="#ffffff" opacity="0.96"/>
  <text x="245" y="156" text-anchor="middle" class="tiny">启动</text>
  <path d="M 460 164 L 520 164" fill="none" stroke="#ea580c" stroke-width="2" marker-end="url(#arrow-orange)"/>
  <rect x="468.0" y="142" width="44" height="18" rx="4" fill="#ffffff" opacity="0.96"/>
  <text x="490" y="156" text-anchor="middle" class="tiny">入队</text>
  <path d="M 740 164 L 680 164" fill="none" stroke="#16a34a" stroke-width="2" marker-end="url(#arrow-green)"/>
  <rect x="688.0" y="142" width="44" height="18" rx="4" fill="#ffffff" opacity="0.96"/>
  <text x="710" y="156" text-anchor="middle" class="tiny">读取</text>
  <path d="M 920 164 L 980 164" fill="none" stroke="#16a34a" stroke-width="2" marker-end="url(#arrow-green)"/>
  <rect x="926.0" y="142" width="48" height="18" rx="4" fill="#ffffff" opacity="0.96"/>
  <text x="950" y="156" text-anchor="middle" class="tiny">结果汇总</text>
  <rect x="80" y="326" width="160" height="70" rx="10" fill="#ffffff" stroke="#d1d5db" stroke-width="1.5" filter="url(#shadow)"/>
  <text x="160.0" y="350" text-anchor="middle" class="label">EnvProcess-i</text>
  <text x="160.0" y="373" text-anchor="middle" class="small">pid / nodeId / runId</text>
  <rect x="295" y="326" width="170" height="70" rx="10" fill="#f0fdfa" stroke="#99f6e4" stroke-width="1.5" filter="url(#shadow)"/>
  <text x="380.0" y="350" text-anchor="middle" class="label">DesktopEnv</text>
  <text x="380.0" y="373" text-anchor="middle" class="small">provider + controller</text>
  <rect x="520" y="288" width="170" height="70" rx="10" fill="#fef2f2" stroke="#fecaca" stroke-width="1.5" filter="url(#shadow)"/>
  <text x="605.0" y="312" text-anchor="middle" class="label">CUA Binary</text>
  <text x="605.0" y="335" text-anchor="middle" class="small">cua run + config</text>
  <rect x="520" y="400" width="170" height="58" rx="10" fill="#fef2f2" stroke="#fecaca" stroke-width="1.5" filter="url(#shadow)"/>
  <text x="605.0" y="424" text-anchor="middle" class="label">openclaw shim</text>
  <text x="605.0" y="447" text-anchor="middle" class="small">转发工具请求</text>
  <rect x="745" y="288" width="170" height="70" rx="10" fill="#eff6ff" stroke="#bfdbfe" stroke-width="1.5" filter="url(#shadow)"/>
  <text x="830.0" y="312" text-anchor="middle" class="label">BridgeServer</text>
  <text x="830.0" y="335" text-anchor="middle" class="small">127.0.0.1:freePort</text>
  <rect x="745" y="400" width="170" height="58" rx="10" fill="#eff6ff" stroke="#bfdbfe" stroke-width="1.5" filter="url(#shadow)"/>
  <text x="830.0" y="424" text-anchor="middle" class="label">BridgeExecutor</text>
  <text x="830.0" y="447" text-anchor="middle" class="small">翻译 + runId 校验</text>
  <rect x="970" y="326" width="170" height="70" rx="10" fill="#f0fdf4" stroke="#bbf7d0" stroke-width="1.5" filter="url(#shadow)"/>
  <text x="1055.0" y="350" text-anchor="middle" class="label">VM Controller</text>
  <text x="1055.0" y="373" text-anchor="middle" class="small">pyautogui / setup</text>
  <rect x="80" y="424" width="160" height="42" rx="10" fill="#ffffff" stroke="#d1d5db" stroke-width="1.5" filter="url(#shadow)"/>
  <text x="160.0" y="448" text-anchor="middle" class="label">EnvProcess-N</text>
  <text x="160.0" y="471" text-anchor="middle" class="small">并行复制</text>
  <path d="M 160 396 L 160 424" stroke="#6b7280" stroke-width="1.5" stroke-dasharray="4 3" fill="none"/>
  <text x="178" y="414" class="tiny">...</text>
  <path d="M 600 192 L 600 236 L 160 236 L 160 326" fill="none" stroke="#ea580c" stroke-width="2" marker-end="url(#arrow-orange)"/>
  <rect x="358.0" y="214" width="44" height="18" rx="4" fill="#ffffff" opacity="0.96"/>
  <text x="380" y="228" text-anchor="middle" class="tiny">取任务</text>
  <path d="M 240 361 L 295 361" fill="none" stroke="#ea580c" stroke-width="2" marker-end="url(#arrow-orange)"/>
  <rect x="246.0" y="339" width="44" height="18" rx="4" fill="#ffffff" opacity="0.96"/>
  <text x="268" y="353" text-anchor="middle" class="tiny">创建</text>
  <path d="M 465 348 L 520 323" fill="none" stroke="#ea580c" stroke-width="2" marker-end="url(#arrow-orange)"/>
  <rect x="472.0" y="311" width="44" height="18" rx="4" fill="#ffffff" opacity="0.96"/>
  <text x="494" y="325" text-anchor="middle" class="tiny">拉起</text>
  <path d="M 605 358 L 605 400" fill="none" stroke="#ea580c" stroke-width="2" marker-end="url(#arrow-orange)"/>
  <rect x="608.0" y="370" width="44" height="18" rx="4" fill="#ffffff" opacity="0.96"/>
  <text x="630" y="384" text-anchor="middle" class="tiny">调用</text>
  <path d="M 690 429 L 745 429" fill="none" stroke="#2563eb" stroke-width="2" marker-end="url(#arrow-blue)"/>
  <rect x="682.0" y="407" width="72" height="18" rx="4" fill="#ffffff" opacity="0.96"/>
  <text x="718" y="421" text-anchor="middle" class="tiny">invoke</text>
  <path d="M 830 358 L 830 400" fill="none" stroke="#2563eb" stroke-width="2" marker-end="url(#arrow-blue)"/>
  <rect x="833.0" y="371" width="44" height="18" rx="4" fill="#ffffff" opacity="0.96"/>
  <text x="855" y="385" text-anchor="middle" class="tiny">请求</text>
  <path d="M 915 429 L 1055 429 L 1055 396" fill="none" stroke="#2563eb" stroke-width="2" marker-end="url(#arrow-blue)"/>
  <rect x="961.0" y="407" width="48" height="18" rx="4" fill="#ffffff" opacity="0.96"/>
  <text x="985" y="421" text-anchor="middle" class="tiny">执行工具</text>
  <rect x="945" y="258" width="250" height="42" rx="10" fill="#fffbeb" stroke="#fde68a" stroke-width="1.2"/>
  <text x="1070" y="275" text-anchor="middle" class="small">并发硬约束</text>
  <text x="1070" y="292" text-anchor="middle" class="tiny">N 个 worker 必须对应 N 个独立环境</text>
  <rect x="85" y="584" width="160" height="56" rx="10" fill="#fff7ed" stroke="#fed7aa" stroke-width="1.5" filter="url(#shadow)"/>
  <text x="165.0" y="608" text-anchor="middle" class="label">Provider Manager</text>
  <text x="165.0" y="631" text-anchor="middle" class="small">分配环境</text>
  <rect x="340" y="574" width="500" height="76" rx="10" fill="#fff7ed" stroke="#fed7aa" stroke-width="1.5" filter="url(#shadow)"/>
  <text x="590.0" y="598" text-anchor="middle" class="label">Provider Backend</text>
  <text x="590.0" y="621" text-anchor="middle" class="small">VMware .vmx / Docker container / ECS-EC2 instance</text>
  <rect x="1080" y="574" width="130" height="76" rx="10" fill="#f0fdf4" stroke="#bbf7d0" stroke-width="1.5" filter="url(#shadow)"/>
  <text x="1145.0" y="598" text-anchor="middle" class="label">Ubuntu VM</text>
  <text x="1145.0" y="621" text-anchor="middle" class="small">OSWorld target</text>
  <path d="M 380 396 L 380 540 L 165 540 L 165 584" fill="none" stroke="#ea580c" stroke-width="2" marker-end="url(#arrow-orange)"/>
  <rect x="256.0" y="518" width="48" height="18" rx="4" fill="#ffffff" opacity="0.96"/>
  <text x="280" y="532" text-anchor="middle" class="tiny">申请环境</text>
  <path d="M 245 612 L 340 612" fill="none" stroke="#ea580c" stroke-width="2" marker-end="url(#arrow-orange)"/>
  <rect x="268.0" y="590" width="48" height="18" rx="4" fill="#ffffff" opacity="0.96"/>
  <text x="292" y="604" text-anchor="middle" class="tiny">选择后端</text>
  <path d="M 840 612 L 1080 612" fill="none" stroke="#2563eb" stroke-width="2" marker-end="url(#arrow-blue)"/>
  <rect x="936.0" y="590" width="48" height="18" rx="4" fill="#ffffff" opacity="0.96"/>
  <text x="960" y="604" text-anchor="middle" class="tiny">远端桌面</text>
  <path d="M 1055 396 L 1055 540 L 1145 540 L 1145 574" fill="none" stroke="#2563eb" stroke-width="2" marker-end="url(#arrow-blue)"/>
  <rect x="1078.0" y="518" width="44" height="18" rx="4" fill="#ffffff" opacity="0.96"/>
  <text x="1100" y="532" text-anchor="middle" class="tiny">动作</text>
  <path d="M 1145 574 L 1145 520 L 830 520 L 830 458" fill="none" stroke="#16a34a" stroke-width="2" marker-end="url(#arrow-green)"/>
  <rect x="950.0" y="498" width="60" height="18" rx="4" fill="#ffffff" opacity="0.96"/>
  <text x="980" y="512" text-anchor="middle" class="tiny">截图/状态</text>
  <rect x="520" y="656" width="690" height="28" rx="8" fill="#fffbeb" stroke="#fde68a" stroke-width="1.2"/>
  <text x="865" y="675" text-anchor="middle" class="tiny">ECS：path_to_vm=None 动态创建；path_to_vm=实例ID 可指定单实例；多预置实例需 runner 支持列表分配</text>
  <rect x="95" y="730" width="190" height="34" rx="10" fill="#ffffff" stroke="#d1d5db" stroke-width="1.5" filter="url(#shadow)"/>
  <text x="190.0" y="754" text-anchor="middle" class="label">result / recording</text>
  <rect x="345" y="730" width="190" height="34" rx="10" fill="#ffffff" stroke="#d1d5db" stroke-width="1.5" filter="url(#shadow)"/>
  <text x="440.0" y="754" text-anchor="middle" class="label">runtime / cua logs</text>
  <rect x="595" y="730" width="190" height="34" rx="10" fill="#ffffff" stroke="#d1d5db" stroke-width="1.5" filter="url(#shadow)"/>
  <text x="690.0" y="754" text-anchor="middle" class="label">cua_meta / failure</text>
  <rect x="845" y="730" width="190" height="34" rx="10" fill="#ffffff" stroke="#d1d5db" stroke-width="1.5" filter="url(#shadow)"/>
  <text x="940.0" y="754" text-anchor="middle" class="label">summary reports</text>
  <rect x="1095" y="730" width="110" height="34" rx="10" fill="#ffffff" stroke="#d1d5db" stroke-width="1.5" filter="url(#shadow)"/>
  <text x="1150.0" y="754" text-anchor="middle" class="label">验收清单</text>
  <path d="M 380 396 L 380 704 L 190 704 L 190 730" fill="none" stroke="#16a34a" stroke-width="2" marker-end="url(#arrow-green)"/>
  <rect x="264.0" y="682" width="44" height="18" rx="4" fill="#ffffff" opacity="0.96"/>
  <text x="286" y="696" text-anchor="middle" class="tiny">落盘</text>
  <path d="M 605 458 L 605 704 L 440 704 L 440 730" fill="none" stroke="#16a34a" stroke-width="2" marker-end="url(#arrow-green)"/>
  <rect x="502.0" y="682" width="44" height="18" rx="4" fill="#ffffff" opacity="0.96"/>
  <text x="524" y="696" text-anchor="middle" class="tiny">日志</text>
  <path d="M 830 458 L 830 704 L 690 704 L 690 730" fill="none" stroke="#16a34a" stroke-width="2" marker-end="url(#arrow-green)"/>
  <rect x="736.0" y="682" width="48" height="18" rx="4" fill="#ffffff" opacity="0.96"/>
  <text x="760" y="696" text-anchor="middle" class="tiny">失败分类</text>
  <path d="M 1080 202 L 1080 704 L 940 704 L 940 730" fill="none" stroke="#16a34a" stroke-width="2" marker-end="url(#arrow-green)"/>
  <rect x="988.0" y="682" width="44" height="18" rx="4" fill="#ffffff" opacity="0.96"/>
  <text x="1010" y="696" text-anchor="middle" class="tiny">汇总</text>
  <path d="M 1145 650 L 1145 730" fill="none" stroke="#9333ea" stroke-width="2" marker-end="url(#arrow-purple)"/>
  <rect x="1126.0" y="682" width="96" height="18" rx="4" fill="#ffffff" opacity="0.96"/>
  <text x="1174" y="696" text-anchor="middle" class="tiny">evaluate</text>
  <g transform="translate(60, 794)">
    <line x1="0" y1="8" x2="34" y2="8" stroke="#ea580c" stroke-width="2" marker-end="url(#arrow-orange)"/>
    <text x="42" y="12" class="tiny">控制/启动</text>
    <line x1="125" y1="8" x2="159" y2="8" stroke="#2563eb" stroke-width="2" marker-end="url(#arrow-blue)"/>
    <text x="167" y="12" class="tiny">工具调用</text>
    <line x1="250" y1="8" x2="284" y2="8" stroke="#16a34a" stroke-width="2" marker-end="url(#arrow-green)"/>
    <text x="292" y="12" class="tiny">数据/产物</text>
    <line x1="375" y1="8" x2="409" y2="8" stroke="#9333ea" stroke-width="2" marker-end="url(#arrow-purple)"/>
    <text x="417" y="12" class="tiny">评测</text>
  </g>
</svg>